<svg width="477" height="515" viewBox="0 0 477 515" fill="none" xmlns="http://www.w3.org/2000/svg">
<rect width="477" height="515" fill="white"/>
<path d="M168.712 71.4164C169.395 70.9898 169.96 70.7338 170.408 70.6484C170.856 70.5418 171.827 70.4884 173.32 70.4884C175.133 70.4884 176.456 70.6271 177.288 70.9044C178.141 71.1604 178.739 71.6404 179.08 72.3444C179.357 72.8778 179.496 73.3791 179.496 73.8484C179.496 74.2538 179.379 74.7124 179.144 75.2244C178.867 75.8644 178.44 76.3231 177.864 76.6004C177.309 76.8564 176.488 76.9844 175.4 76.9844H175.176C173.768 76.9844 173.064 77.0698 173.064 77.2404C173.064 77.4538 173.736 77.5604 175.08 77.5604C176.275 77.5604 177.149 77.7098 177.704 78.0084C178.28 78.3071 178.685 78.8298 178.92 79.5764C179.069 80.0671 179.144 80.4298 179.144 80.6644C179.144 81.2831 178.781 81.9231 178.056 82.5844C177.523 83.0964 176.573 83.4378 175.208 83.6084L173.224 83.8644V86.3924C173.224 88.0351 173.299 88.9311 173.448 89.0804C173.469 89.1018 173.512 89.1124 173.576 89.1124C173.917 89.1124 174.643 88.9098 175.752 88.5044C177.075 87.9924 178.163 87.7364 179.016 87.7364C180.253 87.7364 181.203 88.3551 181.864 89.5924C182.12 90.0618 182.248 90.5204 182.248 90.9684C182.248 92.3978 180.723 93.6671 177.672 94.7764C175.752 95.4804 174.12 95.8324 172.776 95.8324C170.387 95.8324 168.659 94.6804 167.592 92.3764C167.187 91.5018 166.941 90.6378 166.856 89.7844C166.771 88.9098 166.707 86.3604 166.664 82.1364C166.643 81.1124 166.632 79.7898 166.632 78.1684C166.632 75.0324 166.728 73.3044 166.92 72.9844C167.155 72.5151 167.752 71.9924 168.712 71.4164ZM193.215 82.1364C193.237 82.0511 193.247 81.9338 193.247 81.7844C193.247 81.3791 193.162 81.0058 192.991 80.6644C192.842 80.3018 192.682 80.1204 192.511 80.1204C192.447 80.1204 192.383 80.1524 192.319 80.2164C192.17 80.3658 192.095 81.0591 192.095 82.2964C192.095 83.3418 192.159 83.8644 192.287 83.8644C192.33 83.8644 192.415 83.8004 192.543 83.6724C192.863 83.3738 193.087 82.8618 193.215 82.1364ZM188.863 74.5204C190.378 73.8804 191.754 73.5604 192.991 73.5604C195.146 73.5604 196.863 74.5098 198.143 76.4084C199.253 78.0724 199.807 79.8431 199.807 81.7204C199.807 82.7444 199.626 83.8324 199.263 84.9844C198.901 86.0938 198.207 87.1711 197.183 88.2164C196.181 89.2618 195.125 89.9764 194.015 90.3604C193.226 90.6378 192.767 90.8724 192.639 91.0644C192.49 91.2778 192.415 91.5871 192.415 91.9924C192.415 92.3764 192.522 93.4538 192.735 95.2244C192.863 96.3124 192.927 97.0804 192.927 97.5284C192.927 98.0618 192.81 98.5631 192.575 99.0324C192.277 99.6298 191.914 100.046 191.487 100.28C191.061 100.515 190.463 100.632 189.695 100.632C188.031 100.632 186.997 99.7364 186.591 97.9444C185.951 95.0004 185.631 89.9871 185.631 82.9044V81.7844C185.631 80.6538 185.631 79.8218 185.631 79.2884C185.653 78.7338 185.695 78.1791 185.759 77.6244C185.823 77.0484 185.909 76.6538 186.015 76.4404C186.122 76.2271 186.293 76.0031 186.527 75.7684C186.783 75.5124 187.05 75.3204 187.327 75.1924C187.626 75.0431 188.031 74.8618 188.543 74.6484C188.671 74.6058 188.778 74.5631 188.863 74.5204ZM205.406 71.6724C205.726 71.5444 206.046 71.4804 206.366 71.4804C207.198 71.4804 207.944 71.8111 208.606 72.4724C209.267 73.1338 209.598 73.9124 209.598 74.8084C209.598 75.7044 209.299 76.4298 208.702 76.9844C208.104 77.5391 207.4 77.8164 206.59 77.8164C205.672 77.8164 204.872 77.4751 204.19 76.7924C203.699 76.3018 203.454 75.6511 203.454 74.8404C203.454 74.1791 203.624 73.5498 203.966 72.9524C204.328 72.3551 204.808 71.9284 205.406 71.6724ZM204.094 79.4484C204.734 78.7871 205.448 78.4564 206.238 78.4564C207.006 78.4564 207.72 78.7551 208.382 79.3524L209.374 80.2164L209.822 85.6884C210.014 87.8004 210.11 89.5604 210.11 90.9684C210.11 91.4378 210.088 91.7578 210.046 91.9284C209.875 92.6111 209.512 93.1551 208.958 93.5604C208.424 93.9658 207.795 94.1684 207.07 94.1684C205.662 94.1684 204.68 93.5924 204.126 92.4404C203.912 92.0138 203.688 90.7338 203.454 88.6004C203.24 86.4671 203.134 84.5791 203.134 82.9364C203.134 81.6991 203.176 80.9204 203.262 80.6004C203.347 80.2804 203.624 79.8964 204.094 79.4484ZM214.886 73.7524C215.377 73.4324 215.921 73.2724 216.518 73.2724C217.179 73.2724 217.798 73.4538 218.374 73.8164C218.971 74.1578 219.398 74.6378 219.654 75.2564C219.953 75.9178 220.113 77.8378 220.134 81.0164C220.155 83.5338 220.219 85.2084 220.326 86.0404C220.433 86.8511 220.657 87.2778 220.998 87.3204C222.683 87.5338 223.825 87.8751 224.422 88.3444C225.019 88.7924 225.318 89.5604 225.318 90.6484C225.318 91.2458 225.254 91.6938 225.126 91.9924C225.019 92.2911 224.785 92.6218 224.422 92.9844C224.017 93.3898 223.654 93.6351 223.334 93.7204C223.014 93.8058 222.374 93.8484 221.414 93.8484C219.409 93.8484 217.766 93.3578 216.486 92.3764C215.227 91.3738 214.395 89.9444 213.99 88.0884C213.798 87.2564 213.638 85.0378 213.51 81.4324C213.467 79.9391 213.446 78.9898 213.446 78.5844C213.446 77.0271 213.542 75.9391 213.734 75.3204C213.947 74.6804 214.331 74.1578 214.886 73.7524ZM238.263 80.7924C238.071 80.7284 237.655 80.6004 237.015 80.4084H236.919C236.599 80.4084 236.279 80.7818 235.959 81.5284C235.66 82.2538 235.457 83.1604 235.351 84.2484C235.308 84.6324 235.286 84.8991 235.286 85.0484C235.286 85.7311 235.457 86.2431 235.799 86.5844C236.14 86.9044 236.748 87.1711 237.623 87.3844C238.263 87.5338 238.732 87.6084 239.031 87.6084C239.969 87.6084 240.439 87.0644 240.439 85.9764C240.439 85.6351 240.407 85.2618 240.343 84.8564C240.172 83.9178 239.873 83.0324 239.447 82.2004C239.041 81.3684 238.647 80.8991 238.263 80.7924ZM234.039 74.2004C234.593 73.9871 235.585 73.8804 237.015 73.8804H237.495C238.263 73.8804 238.871 73.9444 239.319 74.0724C239.767 74.1791 240.375 74.4458 241.143 74.8724C242.807 75.7258 244.129 77.0058 245.111 78.7124C246.092 80.4191 246.679 82.4458 246.871 84.7924C246.892 85.0484 246.903 85.4111 246.903 85.8804C246.903 87.8644 246.444 89.5498 245.527 90.9364C244.631 92.3018 243.372 93.2191 241.751 93.6884C240.663 94.0084 239.735 94.1684 238.967 94.1684C238.391 94.1684 237.548 94.0618 236.439 93.8484C234.689 93.4858 233.26 92.8991 232.151 92.0884C231.041 91.2778 230.177 90.1791 229.559 88.7924C229.068 87.7471 228.823 86.4671 228.823 84.9524C228.823 82.6911 229.324 80.4831 230.327 78.3284C231.329 76.1524 232.567 74.7764 234.039 74.2004ZM259.955 79.6084C259.613 79.5444 259.208 79.4378 258.739 79.2884C258.653 79.2458 258.568 79.2244 258.483 79.2244C258.141 79.2244 257.811 79.4271 257.491 79.8324C257.171 80.2378 257.01 80.6538 257.01 81.0804V81.2404C257.053 81.5391 257.139 81.7524 257.267 81.8804C257.395 82.0084 257.651 82.0831 258.035 82.1044H258.323C258.856 82.1044 259.357 81.8164 259.827 81.2404C260.339 80.6431 260.595 80.2484 260.595 80.0564C260.595 79.8644 260.381 79.7151 259.955 79.6084ZM263.411 72.9844C264.008 72.6218 264.595 72.4404 265.171 72.4404C265.875 72.4404 266.515 72.6751 267.091 73.1444C267.667 73.5924 268.093 74.2324 268.371 75.0644C268.627 75.8324 268.755 77.8911 268.755 81.2404C268.755 90.9684 266.621 96.9524 262.355 99.1924C261.48 99.6404 260.296 99.8644 258.803 99.8644C257.48 99.8644 256.509 99.6724 255.891 99.2884C254.867 98.6058 254.355 97.6351 254.355 96.3764C254.355 96.0564 254.397 95.7684 254.483 95.5124C254.909 94.1898 256.125 93.4324 258.131 93.2404C258.963 93.1551 259.485 93.0484 259.699 92.9204C259.933 92.7924 260.211 92.4404 260.531 91.8644C260.957 91.1178 261.256 90.2644 261.427 89.3044L261.651 87.9924L260.819 88.3124C260.221 88.5258 259.293 88.6324 258.035 88.6324C256.776 88.6324 255.517 88.3444 254.259 87.7684C253 87.1711 252.104 86.4458 251.571 85.5924C250.739 84.2484 250.323 82.8298 250.323 81.3364C250.323 79.0324 251.261 76.9098 253.139 74.9684C254.632 73.4111 256.36 72.6324 258.323 72.6324C259.176 72.6324 260.051 72.7924 260.947 73.1124C261.608 73.3471 262.045 73.4644 262.259 73.4644C262.472 73.4644 262.856 73.3044 263.411 72.9844ZM273.896 77.2084C274.301 77.0378 274.738 76.9524 275.208 76.9524C276.061 76.9524 276.797 77.2511 277.416 77.8484L278.344 78.7124V82.2324C278.344 84.8991 278.504 86.2324 278.824 86.2324C279.016 86.2324 279.325 85.7631 279.752 84.8244C280.306 83.5231 280.722 82.2644 281 81.0484C281.298 79.7044 281.608 78.7978 281.928 78.3284C282.504 77.4538 283.368 77.0164 284.52 77.0164C285.586 77.0164 286.44 77.4111 287.08 78.2004C287.613 78.8618 287.88 79.2564 287.88 79.3844C287.88 79.4911 288.093 80.9844 288.52 83.8644C288.882 86.4458 289.064 88.3018 289.064 89.4324C289.064 90.5204 288.925 91.3204 288.648 91.8324C288.37 92.3231 287.901 92.6858 287.24 92.9204C286.664 93.1124 286.205 93.2084 285.864 93.2084C285.373 93.2084 284.776 92.9631 284.072 92.4724L282.952 91.7044L282.024 92.3444C281.149 92.9631 280.2 93.2724 279.176 93.2724C277.746 93.2724 276.37 92.6964 275.048 91.5444C273.853 90.4564 273.064 89.3578 272.68 88.2484C272.296 87.1391 272.093 85.3578 272.072 82.9044V81.6244C272.072 80.4084 272.104 79.5978 272.168 79.1924C272.253 78.7658 272.413 78.4244 272.648 78.1684C273.053 77.7204 273.469 77.4004 273.896 77.2084ZM303.903 80.0884C303.689 79.8751 303.465 79.7684 303.231 79.7684C302.953 79.7684 302.548 79.9178 302.015 80.2164C301.567 80.4298 301.343 80.6324 301.343 80.8244C301.343 81.1018 301.865 81.2404 302.911 81.2404C303.828 81.2404 304.287 81.0698 304.287 80.7284C304.287 80.5578 304.159 80.3444 303.903 80.0884ZM300.415 73.7524C301.268 73.4538 302.228 73.3044 303.295 73.3044C304.361 73.3044 305.257 73.4538 305.983 73.7524C306.729 74.0511 307.508 74.5844 308.319 75.3524C309.151 76.1204 309.759 76.8778 310.143 77.6244C310.719 78.7764 311.007 80.0351 311.007 81.4004C311.007 83.1284 310.591 84.4511 309.759 85.3684C309.033 86.2004 308.191 86.7658 307.231 87.0644C306.271 87.3418 304.767 87.4911 302.719 87.5124C301.396 87.5338 300.479 87.5764 299.967 87.6404C299.476 87.7044 299.231 87.8431 299.231 88.0564C299.231 88.2698 299.572 88.6858 300.255 89.3044C300.724 89.7098 301.311 90.0511 302.015 90.3284C302.74 90.5844 303.423 90.7124 304.063 90.7124C304.233 90.7124 304.447 90.6911 304.703 90.6484C306.025 90.3711 307.049 90.2324 307.775 90.2324C308.543 90.2324 309.14 90.4031 309.567 90.7444C310.313 91.3418 310.687 92.1098 310.687 93.0484C310.687 93.7098 310.495 94.3391 310.111 94.9364C309.727 95.5338 309.193 96.0138 308.511 96.3764C307.551 96.8884 306.164 97.1444 304.351 97.1444C302.452 97.1444 300.788 96.8671 299.359 96.3124C298.079 95.8218 296.895 95.0858 295.807 94.1044C294.719 93.1018 293.887 92.0244 293.311 90.8724C292.927 90.0618 292.681 89.4004 292.575 88.8884C292.489 88.3551 292.447 87.3951 292.447 86.0084C292.447 84.0031 292.671 82.4138 293.119 81.2404C293.759 79.6404 294.783 78.1258 296.191 76.6964C297.599 75.2458 299.007 74.2644 300.415 73.7524Z" fill="#9DD9FF"/>
<path d="M187.153 154.08H189.537L189.361 155.232H186.977L185.825 162.704H184.353L185.169 157.504C183.281 158.128 180.497 158.576 175.745 158.608L177.169 149.488H178.689L177.457 157.264C180.897 157.216 183.409 156.896 185.345 156.304L186.673 147.872H188.113L187.153 154.08ZM201.024 157.152L202.48 147.872H203.936L201.6 162.704H200.144L200.832 158.304C198.352 159.024 193.936 159.344 190.32 159.392L190.208 158.144C194.608 158.08 198.736 157.744 201.024 157.152ZM195.312 156.096C193.168 156.096 191.584 154.736 191.904 152.672C192.208 150.608 194.128 149.2 196.352 149.2C198.56 149.2 200.048 150.56 199.728 152.592C199.424 154.656 197.536 156.096 195.312 156.096ZM193.312 152.608C193.168 153.952 194.208 154.912 195.648 154.912C197.04 154.912 198.128 154.016 198.256 152.672C198.384 151.344 197.456 150.4 196.016 150.4C194.576 150.4 193.456 151.264 193.312 152.608ZM221.27 151.616H223.382L223.174 152.768H221.078L220.646 155.568H219.19L220.422 147.872H221.846L221.27 151.616ZM214.486 151.904C213.702 153.52 212.134 154.832 210.118 155.52L209.606 154.352C212.246 153.52 214.006 151.248 214.374 148.304L215.798 148.464C215.702 149.008 215.51 149.664 215.302 150.176C215.526 152.24 216.694 153.296 218.502 153.776L217.878 155.008C216.294 154.432 214.902 153.504 214.486 151.904ZM216.15 156.432H220.806L220.262 160.224C220.198 160.64 220.038 161.024 219.814 161.312H220.406L220.198 162.48H215.302L215.366 162.048C214.774 162.272 214.006 162.48 213.43 162.48H209.638L210.198 158.88H213.286C213.478 158.528 213.574 158.032 213.638 157.712L213.67 157.536H210.406L210.582 156.432H215.206L215.126 156.992C215.03 157.616 214.838 158.336 214.582 158.88H214.966L214.774 159.952H211.366L211.142 161.36H213.366C214.038 161.36 214.918 161.168 215.51 160.944L216.15 156.432ZM219.27 157.584H217.35L216.838 161.312H218.582C218.758 161.008 218.87 160.736 218.918 160.352L219.27 157.584ZM231.269 153.712C228.245 153.712 227.013 152.624 227.189 150.992C227.365 149.328 229.397 148.08 232.405 148.08C235.413 148.08 236.661 149.168 236.469 150.832C236.277 152.464 234.325 153.712 231.269 153.712ZM228.757 150.848C228.613 151.744 229.429 152.56 231.525 152.608C233.717 152.656 234.757 151.888 234.901 150.992C235.045 150.08 234.245 149.264 232.149 149.216C230.069 149.168 228.917 149.936 228.757 150.848ZM224.069 155.728L224.245 154.576H237.957L237.781 155.728H224.069ZM233.877 157.968H226.325L226.501 156.864H235.493L235.413 157.424C235.317 158.048 235.173 158.64 234.917 159.184H235.253L235.061 160.256H227.397L227.221 161.456H232.565C233.573 161.456 234.389 161.408 235.221 161.28L235.381 162.272C234.549 162.496 233.653 162.576 232.629 162.576H225.621L226.149 159.184H233.557C233.733 158.848 233.781 158.464 233.845 158.144L233.877 157.968ZM251.451 152.96L251.227 154.4H257.035L256.859 155.552H243.147L243.323 154.4H249.723L249.947 152.96H246.299L247.019 148.384H255.787L255.595 149.6H248.299L247.963 151.76H255.387L255.211 152.96H251.451ZM252.971 157.808H245.387L245.563 156.704H254.587L254.507 157.264C254.411 157.904 254.267 158.528 254.011 159.088H254.347L254.155 160.16H246.459L246.267 161.456H251.611C252.635 161.456 253.467 161.376 254.315 161.248L254.379 162.272C253.563 162.496 252.683 162.576 251.675 162.576H244.667L245.211 159.088H252.635C252.827 158.736 252.875 158.32 252.939 157.984L252.971 157.808ZM270.362 154.08H272.906L272.73 155.232H270.186L269.034 162.704H267.562L269.882 147.872H271.322L270.362 154.08ZM263.642 149.36C265.946 149.312 267.45 151.04 266.986 154.048C266.538 157.024 264.634 159.04 262.394 158.992C260.25 158.944 258.746 157.264 259.13 154.336C259.514 151.376 261.466 149.408 263.642 149.36ZM265.498 154.336C265.754 152.08 264.938 150.576 263.546 150.576C262.234 150.576 260.874 151.76 260.586 154.016C260.33 156.256 261.226 157.776 262.522 157.776C263.914 157.776 265.21 156.592 265.498 154.336ZM280.425 159.568H287.081L286.921 160.8H273.209L273.369 159.568H278.697C279.049 159.536 279.305 159.344 279.385 158.848L279.705 156.736H275.529L276.729 148.992H278.233L277.769 151.856H284.505L284.937 148.992H286.409L285.209 156.736H281.129L280.825 158.688C280.761 159.056 280.649 159.392 280.425 159.568ZM284.329 153.04H277.577L277.177 155.536H283.945L284.329 153.04ZM299.192 156.56L300.568 147.872H302.008L299.688 162.704H298.216L298.984 157.856C297.032 158.432 293.832 158.832 289.096 158.864L290.536 149.632H292.088L290.856 157.488C294.376 157.44 297.24 157.136 299.192 156.56ZM152.452 191.616L153.028 187.872H154.5L153.14 196.528H151.684L152.276 192.752H149.268L149.46 191.616H152.452ZM146.116 192.896C145.332 194.48 143.828 195.536 141.94 196.256L141.38 195.088C143.716 194.24 145.316 192.88 145.828 190.144H142.548L142.74 188.944H150.484L150.276 190.144H147.236C147.156 190.56 147.044 190.976 146.932 191.328C147.14 193.488 148.436 194.4 150.084 194.848L149.412 196.032C147.892 195.6 146.58 194.528 146.116 192.896ZM148.468 196.88C151.316 196.816 153.3 197.792 153.012 199.6C152.724 201.392 150.628 202.544 147.716 202.592C144.772 202.64 142.916 201.632 143.204 199.84C143.492 198.016 145.604 196.944 148.468 196.88ZM151.492 199.792C151.636 198.704 150.34 198.048 148.324 198.016C146.308 197.984 144.932 198.496 144.724 199.632C144.516 200.752 145.7 201.392 147.828 201.424C149.956 201.472 151.348 200.88 151.492 199.792ZM167.811 191.616H169.939L169.731 192.768H167.635L167.187 195.616H165.731L166.979 187.872H168.403L167.811 191.616ZM163.251 193.616H163.907L163.683 194.768H156.899L157.843 188.72H164.339L163.811 192.112C163.731 192.608 163.539 193.216 163.251 193.616ZM162.723 189.872H159.107L158.531 193.616H161.939C162.163 193.2 162.291 192.656 162.371 192.144L162.723 189.872ZM165.555 197.488H158.227L158.403 196.384H167.171L167.091 196.944C166.995 197.552 166.787 198.288 166.515 198.832H166.899L166.707 199.904H159.267L159.059 201.36H164.243C165.251 201.36 166.099 201.312 166.931 201.216L167.091 202.176C166.259 202.4 165.331 202.48 164.307 202.48H157.443L158.019 198.832H165.155C165.347 198.496 165.459 197.968 165.523 197.664L165.555 197.488ZM186.841 194.08H189.225L189.049 195.232H186.665L185.513 202.704H184.041L184.809 197.792C183.001 198.352 179.673 198.88 175.289 198.864L176.713 189.664H183.353L183.177 190.896H178.009L176.969 197.536C180.425 197.504 183.417 197.056 185.001 196.608L186.361 187.872H187.801L186.841 194.08ZM204.312 190.32L204.152 191.472H201.96L201.656 193.312H203.88L203.72 194.464H201.48L201.176 196.304H199.72L201.064 187.872H202.536L202.136 190.32H204.312ZM194.36 195.552C192.056 195.552 190.664 194.24 190.872 192.224C191.064 190.208 192.984 188.592 195.256 188.592C197.576 188.592 199.016 189.888 198.792 191.904C198.552 194.032 196.664 195.552 194.36 195.552ZM192.264 191.936C192.12 193.296 193.112 194.432 194.536 194.432C196.024 194.432 197.192 193.552 197.352 192.192C197.528 190.848 196.504 189.744 195.08 189.744C193.592 189.744 192.392 190.576 192.264 191.936ZM196.568 196.752C199.384 196.688 201.336 197.664 201.048 199.536C200.76 201.328 198.696 202.544 195.816 202.592C192.92 202.64 191.08 201.568 191.368 199.776C191.656 197.952 193.736 196.816 196.568 196.752ZM199.528 199.728C199.672 198.64 198.408 197.92 196.424 197.888C194.44 197.856 193.096 198.432 192.888 199.568C192.68 200.688 193.848 201.392 195.928 201.424C198.024 201.472 199.384 200.816 199.528 199.728ZM216.662 193.44H218.966L218.79 194.592H216.47L215.782 199.04H214.326L216.07 187.872H217.526L216.662 193.44ZM212.87 188.496L212.71 189.696C211.142 189.728 209.718 189.632 208.438 189.376L208.806 188.064C210.022 188.304 211.318 188.48 212.87 188.496ZM205.75 190.608H214.582L214.422 191.76H205.59L205.75 190.608ZM209.318 197.568C207.334 197.568 206.102 196.64 206.246 195.088C206.406 193.6 208.006 192.448 210.054 192.448C212.118 192.448 213.35 193.376 213.158 194.928C212.95 196.48 211.446 197.568 209.318 197.568ZM207.638 194.928C207.478 195.872 208.326 196.528 209.558 196.528C210.79 196.528 211.606 196 211.75 195.088C211.894 194.16 211.062 193.504 209.814 193.504C208.63 193.504 207.766 194.016 207.638 194.928ZM208.422 201.248H213.59C214.518 201.248 215.542 201.184 216.31 201.008L216.47 202.096C215.654 202.32 214.63 202.448 213.238 202.448H206.774L207.382 198.624H208.886L208.422 201.248ZM235.949 192.08H238.173L238.013 193.232H235.773L235.293 196.224H233.837L235.149 187.872H236.621L235.949 192.08ZM232.589 190.336C231.485 193.328 228.877 195.36 224.845 196.432L224.397 195.248C227.933 194.336 230.221 192.624 231.101 190.128H225.821L225.981 188.976H232.909C232.845 189.472 232.749 189.888 232.589 190.336ZM226.461 197.12H235.357L234.829 200.176C234.765 200.592 234.605 200.976 234.381 201.264H234.973L234.765 202.432H225.629L226.461 197.12ZM233.741 198.272H227.741L227.245 201.264H233.069C233.245 200.96 233.341 200.688 233.405 200.304L233.741 198.272ZM250.7 191.616L251.276 187.872H252.748L251.388 196.528H249.932L250.524 192.752H247.516L247.708 191.616H250.7ZM244.364 192.896C243.58 194.48 242.076 195.536 240.188 196.256L239.628 195.088C241.964 194.24 243.564 192.88 244.076 190.144H240.796L240.988 188.944H248.732L248.524 190.144H245.484C245.404 190.56 245.292 190.976 245.18 191.328C245.388 193.488 246.684 194.4 248.332 194.848L247.66 196.032C246.14 195.6 244.828 194.528 244.364 192.896ZM246.716 196.88C249.564 196.816 251.548 197.792 251.26 199.6C250.972 201.392 248.876 202.544 245.964 202.592C243.02 202.64 241.164 201.632 241.452 199.84C241.74 198.016 243.852 196.944 246.716 196.88ZM249.74 199.792C249.884 198.704 248.588 198.048 246.572 198.016C244.556 197.984 243.18 198.496 242.972 199.632C242.764 200.752 243.948 201.392 246.076 201.424C248.204 201.472 249.596 200.88 249.74 199.792ZM258.394 191.616H266.074L265.866 192.816H256.762L257.482 188.352H266.426L266.218 189.568H258.73L258.394 191.616ZM253.85 195.328L254.026 194.128H267.738L267.562 195.328H253.85ZM263.658 197.744H256.138L256.314 196.64H265.274L265.194 197.2C265.098 197.824 264.954 198.48 264.698 199.024H265.034L264.842 200.096H257.21L257.018 201.456H262.33C263.338 201.456 264.298 201.36 265.066 201.216L265.178 202.272C264.346 202.496 263.418 202.576 262.394 202.576H255.402L255.962 199.024H263.338C263.514 198.704 263.578 198.336 263.626 198.016L263.658 197.744ZM282.825 187.872L280.489 202.704H279.017L281.353 187.872H282.825ZM273.465 198.832C271.161 198.784 269.593 197.12 269.993 194.176C270.377 191.216 272.441 189.248 274.713 189.2C277.145 189.152 278.745 190.88 278.265 193.888C277.801 196.864 275.801 198.88 273.465 198.832ZM273.593 197.616C275.065 197.616 276.489 196.432 276.777 194.176C277.065 191.92 276.089 190.416 274.617 190.416C273.209 190.416 271.753 191.6 271.449 193.856C271.193 196.112 272.185 197.616 273.593 197.616ZM300.415 187.872H301.887L300.607 195.904H299.135L300.415 187.872ZM293.023 195.552C290.703 195.552 289.295 194.224 289.487 192.144C289.695 190.048 291.631 188.416 293.951 188.416C296.271 188.416 297.711 189.728 297.487 191.824C297.263 193.984 295.343 195.552 293.023 195.552ZM290.863 191.856C290.719 193.248 291.695 194.4 293.167 194.4C294.703 194.4 295.919 193.52 296.095 192.112C296.271 190.72 295.263 189.616 293.807 189.616C292.255 189.616 290.991 190.448 290.863 191.856ZM298.655 198.272C298.863 200 299.823 200.992 301.183 201.248L300.671 202.432C299.311 202.176 298.351 201.28 297.903 199.888C297.119 201.152 296.047 202.032 294.975 202.432C293.807 202.016 293.039 201.072 292.655 199.872C291.759 201.296 290.479 202.192 289.183 202.512L288.735 201.408C290.639 200.8 291.903 199.504 292.287 197.312C292.335 197.04 292.367 196.8 292.367 196.64L293.791 196.768L293.695 197.232C293.615 197.6 293.519 197.952 293.407 198.288C293.551 199.632 294.143 200.592 295.039 201.04C296.335 200.352 297.247 199.136 297.535 197.312C297.583 197.04 297.615 196.8 297.615 196.64L299.039 196.768L298.943 197.232C298.863 197.6 298.767 197.936 298.655 198.272ZM315.662 195.936H314.206L314.766 192.448H312.59L312.782 191.312H314.942L315.502 187.872H316.926L315.662 195.936ZM307.678 195.568C305.454 195.568 304.062 194.208 304.286 192.272C304.494 190.304 306.222 188.672 308.526 188.672C310.782 188.672 312.142 190 311.918 191.952C311.726 193.92 309.998 195.568 307.678 195.568ZM305.678 191.952C305.502 193.184 306.238 194.368 307.806 194.416C309.262 194.464 310.35 193.504 310.526 192.272C310.702 191.056 309.87 189.888 308.446 189.824C306.862 189.76 305.838 190.72 305.678 191.952ZM314.014 198.4C314.222 200.128 315.182 201.12 316.542 201.376L316.03 202.56C314.67 202.304 313.71 201.408 313.262 200.016C312.478 201.28 311.406 202.16 310.334 202.56C309.166 202.144 308.398 201.2 308.014 200C307.118 201.424 305.838 202.32 304.542 202.64L304.094 201.536C305.998 200.928 307.262 199.632 307.646 197.44C307.694 197.168 307.726 196.928 307.726 196.768L309.15 196.896L309.054 197.36C308.974 197.728 308.878 198.08 308.766 198.416C308.91 199.76 309.502 200.72 310.398 201.168C311.694 200.48 312.606 199.264 312.894 197.44C312.942 197.168 312.974 196.928 312.974 196.768L314.398 196.896L314.302 197.36C314.222 197.728 314.126 198.064 314.014 198.4ZM330.205 194.08H332.589L332.413 195.232H330.029L328.877 202.704H327.405L328.173 197.792C326.365 198.352 323.037 198.88 318.653 198.864L320.077 189.664H326.717L326.541 190.896H321.373L320.333 197.536C323.789 197.504 326.781 197.056 328.365 196.608L329.725 187.872H331.165L330.205 194.08ZM333.435 199.12H335.547L335.275 200.96H333.179L333.435 199.12ZM135.783 232.08H138.007L137.847 233.232H135.607L135.127 236.224H133.671L134.983 227.872H136.455L135.783 232.08ZM132.423 230.336C131.319 233.328 128.711 235.36 124.679 236.432L124.231 235.248C127.767 234.336 130.055 232.624 130.935 230.128H125.655L125.815 228.976H132.743C132.679 229.472 132.583 229.888 132.423 230.336ZM126.295 237.12H135.191L134.663 240.176C134.599 240.592 134.439 240.976 134.215 241.264H134.807L134.599 242.432H125.463L126.295 237.12ZM133.575 238.272H127.575L127.079 241.264H132.903C133.079 240.96 133.175 240.688 133.239 240.304L133.575 238.272ZM150.534 231.616L151.11 227.872H152.582L151.222 236.528H149.766L150.358 232.752H147.35L147.542 231.616H150.534ZM144.198 232.896C143.414 234.48 141.91 235.536 140.022 236.256L139.462 235.088C141.798 234.24 143.398 232.88 143.91 230.144H140.63L140.822 228.944H148.566L148.358 230.144H145.318C145.238 230.56 145.126 230.976 145.014 231.328C145.222 233.488 146.518 234.4 148.166 234.848L147.494 236.032C145.974 235.6 144.662 234.528 144.198 232.896ZM146.55 236.88C149.398 236.816 151.382 237.792 151.094 239.6C150.806 241.392 148.71 242.544 145.798 242.592C142.854 242.64 140.998 241.632 141.286 239.84C141.574 238.016 143.686 236.944 146.55 236.88ZM149.574 239.792C149.718 238.704 148.422 238.048 146.406 238.016C144.39 237.984 143.014 238.496 142.806 239.632C142.598 240.752 143.782 241.392 145.91 241.424C148.038 241.472 149.43 240.88 149.574 239.792ZM164.117 242.704L166.437 227.872H167.877L165.557 242.704H164.117ZM162.485 233.6L163.333 228.224H164.725L162.597 241.712H161.205L162.309 234.736H160.805C160.197 237.184 158.837 238.752 156.869 238.8C154.853 238.864 153.717 236.72 154.181 233.888C154.661 230.976 156.213 229.328 158.309 229.264C160.309 229.184 161.301 231.136 161.013 233.6H162.485ZM159.509 234.048C159.733 232.224 159.477 230.512 158.149 230.448C156.917 230.384 155.861 231.424 155.605 234.016C155.397 236.16 155.813 237.536 156.997 237.632C158.245 237.744 159.237 236.24 159.509 234.048ZM185.083 234.08H187.179L187.003 235.232H184.907L183.755 242.704H182.283L183.067 237.696C181.867 238.224 180.155 238.64 177.803 238.64L177.899 238.016C176.891 238.384 175.563 238.64 173.595 238.64L174.987 229.68H178.475L178.267 230.912H176.219L175.211 237.312C176.011 237.264 177.147 237.136 178.091 236.8L179.195 229.68H182.651L182.459 230.912H180.427L179.419 237.36C180.651 237.344 182.155 236.976 183.259 236.496L184.603 227.872H186.043L185.083 234.08ZM199.978 234.08H202.138L201.962 235.232H199.802L198.634 242.704H197.162L197.866 238.192C195.658 238.976 192.154 239.328 188.586 239.28L189.482 233.616H194.186C194.41 233.168 194.666 232.464 194.81 231.44L194.938 230.528H189.898L190.09 229.36H196.65L196.33 231.248C196.154 232.288 195.818 233.2 195.482 233.616H196.122L195.866 234.736H190.794L190.298 237.936C193.05 237.984 196.138 237.616 198.042 237.088L199.482 227.872H200.938L199.978 234.08ZM219.008 234.08H221.392L221.216 235.232H218.832L217.68 242.704H216.208L217.024 237.504C215.136 238.128 212.352 238.576 207.6 238.608L209.024 229.488H210.544L209.312 237.264C212.752 237.216 215.264 236.896 217.2 236.304L218.528 227.872H219.968L219.008 234.08ZM232.879 237.152L234.335 227.872H235.791L233.455 242.704H231.999L232.687 238.304C230.207 239.024 225.791 239.344 222.175 239.392L222.063 238.144C226.463 238.08 230.591 237.744 232.879 237.152ZM227.167 236.096C225.023 236.096 223.439 234.736 223.759 232.672C224.063 230.608 225.983 229.2 228.207 229.2C230.415 229.2 231.903 230.56 231.583 232.592C231.279 234.656 229.391 236.096 227.167 236.096ZM225.167 232.608C225.023 233.952 226.063 234.912 227.503 234.912C228.895 234.912 229.983 234.016 230.111 232.672C230.239 231.344 229.311 230.4 227.871 230.4C226.431 230.4 225.311 231.264 225.167 232.608ZM253.013 234.688H255.461L255.285 235.84H252.837L251.765 242.704H250.293L252.613 227.872H254.085L253.013 234.688ZM249.093 228.752L248.949 230.032C247.269 230.048 245.717 229.984 244.325 229.728L244.629 228.304C245.845 228.544 247.269 228.736 249.093 228.752ZM241.637 231.232H250.709L250.533 232.432H241.461L241.637 231.232ZM246.037 233.312C248.133 233.312 249.461 234.544 249.221 236.4C248.965 238.224 247.397 239.584 245.269 239.584C243.157 239.584 241.925 238.304 242.117 236.544C242.325 234.72 243.893 233.312 246.037 233.312ZM247.749 236.576C247.861 235.44 247.125 234.464 245.813 234.464C244.517 234.464 243.605 235.2 243.509 236.352C243.413 237.488 244.213 238.432 245.509 238.432C246.789 238.432 247.653 237.728 247.749 236.576ZM266.02 235.728H258.612L259.252 231.664H266.5C266.708 231.184 266.868 230.688 266.916 230.256L266.964 229.872H259.524L259.732 228.672H268.708L268.564 229.712C268.5 230.224 268.244 230.976 267.908 231.664H268.516L268.356 232.8H260.516L260.26 234.544H265.956C266.964 234.544 267.86 234.48 268.66 234.32L268.852 235.376C267.988 235.584 267.044 235.728 266.02 235.728ZM256.004 237.376H269.716L269.524 238.608H263.508L262.772 242.864H261.3L262.02 238.608H255.812L256.004 237.376ZM283.187 234.08H285.619L285.443 235.232H283.011L281.843 242.704H280.387L282.707 227.872H284.163L283.187 234.08ZM278.419 230.544H272.995L273.139 229.312H280.147C280.115 229.728 280.003 230.272 279.891 230.736C278.995 234.48 276.451 237.92 271.779 239.408L271.219 238.16C275.315 236.832 277.555 234.192 278.419 230.544ZM302.265 231.456H304.377L304.169 232.608H302.073L301.609 235.6H300.153L300.425 233.952C298.649 234.544 295.209 234.928 291.497 234.896L292.425 228.8H298.633L298.441 230.032H293.625L293.065 233.664C296.073 233.616 299.049 233.28 300.617 232.768L301.401 227.872H302.825L302.265 231.456ZM299.977 237.488H292.649L292.825 236.384H301.593L301.513 236.944C301.417 237.552 301.209 238.288 300.937 238.832H301.321L301.129 239.904H293.689L293.481 241.36H298.665C299.673 241.36 300.521 241.312 301.353 241.216L301.513 242.176C300.681 242.4 299.753 242.48 298.729 242.48H291.865L292.441 238.832H299.577C299.769 238.496 299.881 237.968 299.945 237.664L299.977 237.488ZM317.272 234.08H319.432L319.256 235.232H317.096L315.928 242.704H314.456L315.16 238.192C312.952 238.976 309.448 239.328 305.88 239.28L306.776 233.616H311.48C311.704 233.168 311.96 232.464 312.104 231.44L312.232 230.528H307.192L307.384 229.36H313.944L313.624 231.248C313.448 232.288 313.112 233.2 312.776 233.616H313.416L313.16 234.736H308.088L307.592 237.936C310.344 237.984 313.432 237.616 315.336 237.088L316.776 227.872H318.232L317.272 234.08ZM330.246 242.704L332.598 227.872H334.038L331.718 242.704H330.246ZM326.534 232.864C326.566 235.312 327.958 236.896 329.862 237.584L329.142 238.848C327.542 238.224 325.99 236.784 325.638 234.736C324.742 236.56 323.11 238.16 321.062 239.104L320.374 237.904C323.046 236.864 325.046 234.192 325.638 230.592H322.038L322.23 229.392H330.486L330.262 230.592H327.078C326.966 231.264 326.742 232.24 326.534 232.864ZM346.229 237.872L344.821 237.648C345.685 235.488 346.245 233.184 346.597 230.656H337.733L337.893 229.456H348.261C348.229 229.808 348.181 230.32 348.117 230.72C347.717 233.312 347.093 235.824 346.229 237.872ZM341.013 239.488H348.981L348.821 240.672H335.109L335.269 239.488H339.365C339.669 239.408 339.893 239.104 339.973 238.656L340.613 234.4H342.037L341.397 238.624C341.349 238.976 341.221 239.312 341.013 239.488ZM350.308 240.112L350.372 239.552L352.276 239.136L352.532 239.248C352.644 239.76 352.564 240.176 352.42 240.72C352.244 241.36 351.668 242.352 351.124 242.88L350.468 242.624C350.852 242.16 351.172 241.488 351.124 241.024C351.076 240.592 350.74 240.352 350.308 240.112ZM133.326 273.92L134.27 267.872H135.71L133.39 282.704H131.95L133.15 275.04H131.278L130.222 281.712H128.766L130.91 268.208H132.366L131.454 273.92H133.326ZM129.102 269.68L128.142 275.808C128.062 276.368 127.902 276.928 127.662 277.376H128.222L128.046 278.56H122.158L123.566 269.68H129.102ZM127.454 270.928H124.878L123.774 277.376H126.286C126.446 276.928 126.558 276.512 126.654 275.936L127.454 270.928ZM147.916 275.296L149.084 267.872H150.492L149.324 275.296H147.916ZM146.124 271.504C145.788 273.504 143.884 274.992 141.66 274.992C139.452 274.992 137.916 273.776 138.22 271.776C138.556 269.776 140.524 268.304 142.764 268.304C145.004 268.304 146.412 269.488 146.124 271.504ZM139.692 271.616C139.468 272.944 140.444 273.872 141.804 273.872C143.18 273.872 144.428 272.992 144.652 271.664C144.86 270.352 143.9 269.456 142.524 269.456C141.132 269.456 139.916 270.288 139.692 271.616ZM147.708 277.264H139.884L140.06 276.16H149.324L149.244 276.72C149.148 277.376 148.924 278.16 148.636 278.752H149.02L148.828 279.824H140.94L140.716 281.408H146.38C147.388 281.408 148.236 281.36 149.068 281.264L149.228 282.224C148.396 282.448 147.468 282.528 146.444 282.528H139.1L139.692 278.752H147.276C147.484 278.368 147.612 277.792 147.676 277.44L147.708 277.264ZM167.411 273.92L168.355 267.872H169.795L167.475 282.704H166.035L167.235 275.04H165.363L164.307 281.712H162.851L164.995 268.208H166.451L165.539 273.92H167.411ZM163.187 269.68L162.227 275.808C162.147 276.368 161.987 276.928 161.747 277.376H162.307L162.131 278.56H156.243L157.651 269.68H163.187ZM161.539 270.928H158.963L157.859 277.376H160.371C160.531 276.928 160.643 276.512 160.739 275.936L161.539 270.928ZM182.001 275.296L183.169 267.872H184.577L183.409 275.296H182.001ZM180.209 271.504C179.873 273.504 177.969 274.992 175.745 274.992C173.537 274.992 172.001 273.776 172.305 271.776C172.641 269.776 174.609 268.304 176.849 268.304C179.089 268.304 180.497 269.488 180.209 271.504ZM173.777 271.616C173.553 272.944 174.529 273.872 175.889 273.872C177.265 273.872 178.513 272.992 178.737 271.664C178.945 270.352 177.985 269.456 176.609 269.456C175.217 269.456 174.001 270.288 173.777 271.616ZM181.793 277.264H173.969L174.145 276.16H183.409L183.329 276.72C183.233 277.376 183.009 278.16 182.721 278.752H183.105L182.913 279.824H175.025L174.801 281.408H180.465C181.473 281.408 182.321 281.36 183.153 281.264L183.313 282.224C182.481 282.448 181.553 282.528 180.529 282.528H173.185L173.777 278.752H181.361C181.569 278.368 181.697 277.792 181.761 277.44L181.793 277.264ZM201.88 274.08H204.264L204.088 275.232H201.704L200.552 282.704H199.08L199.848 277.792C198.04 278.352 194.712 278.88 190.328 278.864L191.752 269.664H198.392L198.216 270.896H193.048L192.008 277.536C195.464 277.504 198.456 277.056 200.04 276.608L201.4 267.872H202.84L201.88 274.08ZM209.366 273.6H217.254L217.078 274.704H207.766L208.358 271.008H215.574C215.686 270.688 215.766 270.192 215.814 269.84L215.846 269.6H208.534L208.726 268.448H217.51L217.366 269.28C217.286 269.76 217.126 270.528 216.934 271.008H217.35L217.174 272.112H209.622L209.366 273.6ZM204.614 277.248L204.79 276.032H218.502L218.326 277.248H204.614ZM208.054 281.136H213.414C214.422 281.136 215.558 281.056 216.326 280.896L216.47 282C215.59 282.224 214.486 282.304 213.206 282.304H206.39L207.062 278.256H208.55L208.054 281.136ZM235.965 274.08H238.349L238.173 275.232H235.789L234.637 282.704H233.165L233.981 277.504C232.093 278.128 229.309 278.576 224.557 278.608L225.981 269.488H227.501L226.269 277.264C229.709 277.216 232.221 276.896 234.157 276.304L235.485 267.872H236.925L235.965 274.08ZM251.02 274.08H253.26L253.084 275.232H250.844L249.692 282.704H248.22L248.828 278.784C246.316 279.44 241.932 279.824 238.716 279.888L238.604 278.64C239.98 278.608 241.372 278.544 242.7 278.448L243.068 275.904C241.084 275.712 239.74 274.384 240.028 272.448C240.364 270.336 242.348 268.912 244.668 268.912C246.972 268.912 248.54 270.256 248.22 272.368C247.948 274.208 246.396 275.568 244.46 275.872L244.108 278.336C246.06 278.144 247.788 277.904 249.004 277.632L250.524 267.872H251.98L251.02 274.08ZM241.468 272.384C241.324 273.776 242.412 274.784 243.948 274.784C245.42 274.784 246.588 273.824 246.716 272.448C246.844 271.072 245.852 270.08 244.348 270.08C242.828 270.08 241.628 270.992 241.468 272.384ZM270.05 274.08H272.594L272.418 275.232H269.874L268.722 282.704H267.25L269.57 267.872H271.01L270.05 274.08ZM265.474 278.72H258.61L260.002 269.744H266.834L265.794 275.904C265.698 276.512 265.522 277.104 265.266 277.536H265.682L265.474 278.72ZM265.154 270.96H261.282L260.242 277.536H263.922C264.098 277.136 264.226 276.624 264.322 276.032L265.154 270.96ZM274.896 275.024L274.464 273.68C276.848 273.344 278.848 272.464 279.792 270.96C279.984 270.656 280.112 270.32 280.208 270H275.648L275.856 268.736H286.48L286.272 269.984H281.776C281.696 270.288 281.6 270.624 281.456 270.864C282.016 272.4 283.92 273.296 286.16 273.632L285.68 274.912C283.776 274.656 281.488 273.68 280.64 272.064C279.392 273.712 277.024 274.656 274.896 275.024ZM272.96 276.24H286.672L286.48 277.472H280.592L279.776 282.688H278.304L279.104 277.472H272.768L272.96 276.24ZM300.047 274.688H302.495L302.319 275.84H299.871L298.799 282.704H297.327L299.647 267.872H301.119L300.047 274.688ZM296.127 268.752L295.983 270.032C294.303 270.048 292.751 269.984 291.359 269.728L291.663 268.304C292.879 268.544 294.303 268.736 296.127 268.752ZM288.671 271.232H297.743L297.567 272.432H288.495L288.671 271.232ZM293.071 273.312C295.167 273.312 296.495 274.544 296.255 276.4C295.999 278.224 294.431 279.584 292.303 279.584C290.191 279.584 288.959 278.304 289.151 276.544C289.359 274.72 290.927 273.312 293.071 273.312ZM294.783 276.576C294.895 275.44 294.159 274.464 292.847 274.464C291.551 274.464 290.639 275.2 290.543 276.352C290.447 277.488 291.247 278.432 292.543 278.432C293.823 278.432 294.687 277.728 294.783 276.576ZM313.39 282.704L315.63 267.872H317.086L314.846 282.704H313.39ZM311.758 273.648L312.606 268.224H314.062L311.934 281.712H310.478L311.566 274.832H309.15C307.934 276.8 306.11 278.336 303.854 279.2L303.262 278C306.446 276.816 308.606 274.24 309.246 270.96H304.686L304.878 269.728H310.878C310.814 270.096 310.734 270.592 310.654 271.008C310.462 271.936 310.174 272.816 309.79 273.648H311.758ZM334.196 279.168H332.74L333.188 276.32C330.612 276.896 326.468 277.328 322.868 277.328L322.756 276.096C324.34 276.112 325.86 276.064 327.268 275.968L327.604 274.016H324.756L325.54 268.992H332.532L332.372 270.256H326.82L326.404 272.848H329.236C330.244 272.848 331.156 272.768 332.004 272.64L332.132 273.68C331.268 273.888 330.324 274.016 329.3 274.016H328.996L328.692 275.872C330.548 275.712 332.148 275.472 333.348 275.216L334.5 267.872H335.956L334.196 279.168ZM326.244 281.216H331.796C332.724 281.216 333.748 281.168 334.516 281.024L334.676 282.032C333.86 282.256 332.836 282.384 331.444 282.384H324.676L325.348 278.16H326.772L326.244 281.216ZM349.251 274.08H351.635L351.459 275.232H349.075L347.923 282.704H346.451L347.219 277.792C345.411 278.352 342.083 278.88 337.699 278.864L339.123 269.664H345.763L345.587 270.896H340.419L339.379 277.536C342.835 277.504 345.827 277.056 347.411 276.608L348.771 267.872H350.211L349.251 274.08ZM352.482 279.12H354.594L354.322 280.96H352.226L352.482 279.12ZM232.559 319.12H234.671L234.399 320.96H232.303L232.559 319.12ZM237.192 319.12H239.304L239.032 320.96H236.936L237.192 319.12ZM241.824 319.12H243.936L243.664 320.96H241.568L241.824 319.12ZM210.483 358.128L209.075 357.904C209.955 355.648 210.483 353.312 210.947 350.656H202.115L202.275 349.456H212.643C212.611 349.888 212.531 350.464 212.451 350.864C211.939 353.584 211.363 355.984 210.483 358.128ZM199.507 360.896L199.667 359.664H213.187L213.027 360.896H199.507ZM227.282 355.664H225.826L226.354 352.416H223.938L224.13 351.28H226.53L227.074 347.872H228.498L227.282 355.664ZM223.458 353.456L223.634 354.464C222.866 354.672 222.05 354.8 221.154 354.8H216.434L217.042 351.2H221.346C221.586 350.832 221.73 350.528 221.778 350.208L221.826 349.872H217.202L217.394 348.688H223.57L223.426 349.648C223.346 350.112 223.122 350.64 222.738 351.2H223.202L223.042 352.304H218.242L218.002 353.632H221.106C221.986 353.632 222.722 353.584 223.458 353.456ZM220.242 356.608L220.594 355.408C221.97 355.632 223.666 355.856 225.298 355.904L225.122 356.96C223.234 356.96 221.698 356.864 220.242 356.608ZM227.282 358.576H216.866L217.042 357.488H227.458L227.282 358.576ZM222.21 359.056C224.274 359.056 225.57 359.648 225.394 360.64C225.186 361.696 223.554 362.448 221.426 362.448C219.33 362.448 218.034 361.84 218.226 360.784C218.402 359.776 220.066 359.056 222.21 359.056ZM223.842 360.784C223.906 360.368 223.218 360.016 222.002 360.016C220.85 360.016 219.842 360.208 219.794 360.672C219.746 361.168 220.434 361.536 221.618 361.536C222.85 361.536 223.778 361.248 223.842 360.784ZM240.017 362.704L242.257 347.872H243.713L241.473 362.704H240.017ZM238.385 353.648L239.233 348.224H240.689L238.561 361.712H237.105L238.193 354.832H235.777C234.561 356.8 232.737 358.336 230.481 359.2L229.889 358C233.073 356.816 235.233 354.24 235.873 350.96H231.313L231.505 349.728H237.505C237.441 350.096 237.361 350.592 237.281 351.008C237.089 351.936 236.801 352.816 236.417 353.648H238.385ZM260.839 354.08H263.223L263.047 355.232H260.663L259.511 362.704H258.039L258.855 357.504C256.967 358.128 254.183 358.576 249.431 358.608L250.855 349.488H252.375L251.143 357.264C254.583 357.216 257.095 356.896 259.031 356.304L260.359 347.872H261.799L260.839 354.08ZM269.27 348.256L268.566 352.352H276.31L276.118 353.52H266.918L267.766 348.256H269.27ZM277.414 356.32H263.702L263.894 355.136H277.606L277.414 356.32ZM267.59 357.68L267.014 361.136H272.406C273.414 361.136 274.502 361.056 275.286 360.896L275.43 362C274.566 362.224 273.398 362.304 272.15 362.304H265.35L266.102 357.68H267.59ZM57.5069 393.92L58.4189 387.872H59.8589L57.6029 402.704H56.1629L57.3309 395.04H55.4909L54.4029 401.712H52.9629L53.5709 397.968C52.1469 398.384 49.8429 398.704 46.4669 398.72L47.9229 389.488H49.4429L48.1789 397.376C50.4509 397.344 52.4509 397.152 53.7789 396.768L55.1709 388.208H56.5949L55.6669 393.92H57.5069ZM72.1137 395.296L73.2817 387.872H74.6897L73.5217 395.296H72.1137ZM70.3217 391.504C69.9857 393.504 68.0817 394.992 65.8577 394.992C63.6497 394.992 62.1137 393.776 62.4177 391.776C62.7537 389.776 64.7217 388.304 66.9617 388.304C69.2017 388.304 70.6097 389.488 70.3217 391.504ZM63.8897 391.616C63.6657 392.944 64.6417 393.872 66.0017 393.872C67.3777 393.872 68.6257 392.992 68.8497 391.664C69.0577 390.352 68.0977 389.456 66.7217 389.456C65.3297 389.456 64.1137 390.288 63.8897 391.616ZM71.9057 397.264H64.0817L64.2577 396.16H73.5217L73.4417 396.72C73.3457 397.376 73.1217 398.16 72.8337 398.752H73.2177L73.0257 399.824H65.1377L64.9137 401.408H70.5777C71.5857 401.408 72.4337 401.36 73.2657 401.264L73.4257 402.224C72.5937 402.448 71.6657 402.528 70.6417 402.528H63.2977L63.8897 398.752H71.4737C71.6817 398.368 71.8097 397.792 71.8737 397.44L71.9057 397.264ZM82.9444 394.368C80.0324 394.368 78.4484 393.248 78.7364 391.424C79.0404 389.568 81.1844 388.368 84.0644 388.368C86.9444 388.368 88.6404 389.504 88.3364 391.36C88.0484 393.2 85.8884 394.368 82.9444 394.368ZM83.3124 393.264C85.3284 393.296 86.7364 392.544 86.8964 391.472C87.0724 390.336 85.9524 389.536 83.8564 389.488C81.7604 389.44 80.2884 390.208 80.1764 391.344C80.0644 392.448 81.2484 393.232 83.3124 393.264ZM89.4884 396.592H75.7764L75.9684 395.408H89.6804L89.4884 396.592ZM79.6804 397.824L79.1204 401.136H84.4804C85.4884 401.136 86.6244 401.056 87.3924 400.896L87.5364 402C86.6564 402.224 85.5524 402.304 84.2724 402.304H77.4564L78.1924 397.824H79.6804ZM106.391 393.696L107.287 387.872H108.759L106.471 402.704H104.999L106.215 394.848H103.543C102.887 397.296 101.255 398.88 99.3507 398.832C97.3027 398.784 95.8947 397.104 96.2787 394.144C96.6787 391.2 98.5187 389.248 100.599 389.2C102.711 389.152 104.151 390.8 103.783 393.696H106.391ZM102.263 394.128C102.535 391.904 101.783 390.416 100.519 390.416C99.2707 390.416 98.0227 391.6 97.7347 393.856C97.4627 396.112 98.2787 397.616 99.4627 397.616C100.759 397.616 101.975 396.416 102.263 394.128ZM118.837 393.344L119.029 392.208H121.653L122.325 387.872H123.797L122.069 399.04H120.597L121.477 393.344H118.837ZM117.813 396.368H115.301L115.397 395.76C114.421 396.128 113.109 396.368 111.221 396.368L112.293 389.248H115.653L115.477 390.416H113.541L112.821 395.104C113.589 395.056 114.661 394.928 115.573 394.608L116.373 389.248H119.957L119.797 390.416H117.685L116.965 395.104H117.765C118.549 395.104 119.221 395.056 119.877 394.928L120.053 396.032C119.365 396.24 118.629 396.368 117.813 396.368ZM114.069 401.216H119.621C120.549 401.216 121.573 401.168 122.341 401.024L122.501 402.032C121.685 402.256 120.661 402.384 119.269 402.384H112.501L113.205 397.936H114.629L114.069 401.216ZM141.116 394.08H143.5L143.324 395.232H140.94L139.788 402.704H138.316L139.132 397.504C137.244 398.128 134.46 398.576 129.708 398.608L131.132 389.488H132.652L131.42 397.264C134.86 397.216 137.372 396.896 139.308 396.304L140.636 387.872H142.076L141.116 394.08ZM156.17 394.08H158.41L158.234 395.232H155.994L154.842 402.704H153.37L153.978 398.784C151.466 399.44 147.082 399.824 143.866 399.888L143.754 398.64C145.13 398.608 146.522 398.544 147.85 398.448L148.218 395.904C146.234 395.712 144.89 394.384 145.178 392.448C145.514 390.336 147.498 388.912 149.818 388.912C152.122 388.912 153.69 390.256 153.37 392.368C153.098 394.208 151.546 395.568 149.61 395.872L149.258 398.336C151.21 398.144 152.938 397.904 154.154 397.632L155.674 387.872H157.13L156.17 394.08ZM146.618 392.384C146.474 393.776 147.562 394.784 149.098 394.784C150.57 394.784 151.738 393.824 151.866 392.448C151.994 391.072 151.002 390.08 149.498 390.08C147.978 390.08 146.778 390.992 146.618 392.384ZM175.201 394.08H177.745L177.569 395.232H175.025L173.873 402.704H172.401L174.721 387.872H176.161L175.201 394.08ZM170.625 398.72H163.761L165.153 389.744H171.985L170.945 395.904C170.849 396.512 170.673 397.104 170.417 397.536H170.833L170.625 398.72ZM170.305 390.96H166.433L165.393 397.536H169.073C169.249 397.136 169.377 396.624 169.473 396.032L170.305 390.96ZM180.047 395.024L179.615 393.68C181.999 393.344 183.999 392.464 184.943 390.96C185.135 390.656 185.263 390.32 185.359 390H180.799L181.007 388.736H191.631L191.423 389.984H186.927C186.847 390.288 186.751 390.624 186.607 390.864C187.167 392.4 189.071 393.296 191.311 393.632L190.831 394.912C188.927 394.656 186.639 393.68 185.791 392.064C184.543 393.712 182.175 394.656 180.047 395.024ZM178.111 396.24H191.823L191.631 397.472H185.743L184.927 402.688H183.455L184.255 397.472H177.919L178.111 396.24ZM201.246 388.272L201.086 389.376C199.502 389.36 198.254 389.312 196.91 389.056L197.262 387.792C198.478 388.032 199.694 388.256 201.246 388.272ZM205.31 392.336H207.502L207.326 393.488H205.134L204.718 396.112H203.278L204.574 387.872H206.014L205.31 392.336ZM194.334 390.16H203.182L203.006 391.248H194.142L194.334 390.16ZM197.982 396.144C196.03 396.144 194.718 395.264 195.006 393.968C195.294 392.688 196.766 391.792 198.766 391.792C200.75 391.792 202.062 392.608 201.742 393.92C201.406 395.248 199.966 396.144 197.982 396.144ZM196.382 393.952C196.318 394.72 197.086 395.152 198.222 395.184C199.454 395.2 200.302 394.736 200.366 393.984C200.414 393.232 199.742 392.8 198.526 392.768C197.326 392.736 196.462 393.216 196.382 393.952ZM202.206 401.552C203.198 401.552 204.046 401.504 204.862 401.408L205.022 402.352C204.206 402.576 203.278 402.656 202.27 402.656H195.054L195.598 399.312H202.734C202.926 398.976 203.038 398.544 203.086 398.288L203.118 398.112H195.758L195.918 397.024H204.718L204.638 397.568C204.558 398.032 204.366 398.8 204.078 399.312H204.462L204.27 400.384H196.83L196.654 401.552H202.206ZM220.477 394.08H222.701L222.525 395.232H220.301L219.149 402.704H217.677L219.997 387.872H221.437L220.477 394.08ZM210.141 389.312H214.125C214.093 389.728 214.013 390.272 213.917 390.736C213.245 394.064 211.757 396.976 209.437 399.008L208.445 398.08C210.493 396.256 211.885 393.744 212.557 390.544H209.965L210.141 389.312ZM214.877 389.312H218.109C218.077 389.728 217.997 390.352 217.917 390.816C217.341 394.24 215.997 397.312 213.469 399.776L212.397 398.976C214.621 396.912 216.013 394 216.541 390.544H214.685L214.877 389.312ZM224.06 391.168L224.092 389.744C225.02 389.04 226.332 388.656 227.308 388.656C229.516 388.656 230.7 389.824 230.396 392C229.98 394.976 226.492 395.152 226.108 397.696L226.044 398.112H224.588L224.652 397.696C225.132 394.56 228.604 394.528 228.972 391.952C229.148 390.64 228.652 389.904 227.052 389.904C226.076 389.904 224.86 390.384 224.06 391.168ZM224.188 399.344H226.204L225.948 401.104H223.932L224.188 399.344ZM247.793 394.08H249.953L249.777 395.232H247.617L246.449 402.704H244.977L245.681 398.192C243.473 398.976 239.969 399.328 236.401 399.28L237.297 393.616H242.001C242.225 393.168 242.481 392.464 242.625 391.44L242.753 390.528H237.713L237.905 389.36H244.465L244.145 391.248C243.969 392.288 243.633 393.2 243.297 393.616H243.937L243.681 394.736H238.609L238.113 397.936C240.865 397.984 243.953 397.616 245.857 397.088L247.297 387.872H248.753L247.793 394.08ZM256.208 388.256L255.504 392.352H263.248L263.056 393.52H253.856L254.704 388.256H256.208ZM264.352 396.32H250.64L250.832 395.136H264.544L264.352 396.32ZM254.528 397.68L253.952 401.136H259.344C260.352 401.136 261.44 401.056 262.224 400.896L262.368 402C261.504 402.224 260.336 402.304 259.088 402.304H252.288L253.04 397.68H254.528ZM280.742 388.368L280.502 389.568C278.71 389.568 277.254 389.472 275.878 389.216L276.294 387.872C277.59 388.144 279.206 388.352 280.742 388.368ZM272.07 390.56H283.606L283.43 391.744H271.894L272.07 390.56ZM277.494 397.904L277.334 398.816C277.27 399.168 277.174 399.488 276.966 399.664H283.526L283.366 400.896H269.654L269.814 399.664H275.382C275.638 399.584 275.83 399.392 275.894 398.976L276.07 397.904C274.15 397.712 272.982 396.768 273.222 395.28C273.478 393.664 275.222 392.464 277.558 392.464C279.894 392.464 281.398 393.488 281.142 395.12C280.902 396.624 279.462 397.696 277.494 397.904ZM274.662 395.12C274.518 396.16 275.494 396.88 276.998 396.88C278.502 396.88 279.606 396.336 279.734 395.28C279.862 394.272 278.902 393.568 277.382 393.568C275.91 393.568 274.806 394.096 274.662 395.12ZM294.885 402.704L297.173 387.872H298.629L296.341 402.704H294.885ZM292.597 390.544H286.917L287.109 389.312H294.341C294.309 389.728 294.197 390.272 294.085 390.736C293.221 394.288 290.229 398.016 285.749 399.408L285.189 398.144C289.157 396.944 291.685 394.16 292.597 390.544ZM310.931 396.048L312.211 387.872H313.683L312.403 396.048H310.931ZM305.827 392.176C304.995 393.872 303.395 395.2 301.299 395.952L300.771 394.768C303.459 393.872 305.283 391.76 305.651 388.48L307.075 388.64C306.995 389.216 306.819 389.92 306.643 390.448C306.835 392.704 308.083 393.824 309.923 394.4L309.251 395.6C307.651 394.96 306.243 393.904 305.827 392.176ZM302.819 397.136H312.371L311.811 400.336C311.747 400.72 311.619 401.056 311.427 401.344H311.843L311.587 402.512H301.987L302.819 397.136ZM310.691 398.288H304.067L303.619 401.344H310.019C310.163 401.072 310.243 400.816 310.307 400.464L310.691 398.288ZM321.97 393.712C318.946 393.712 317.714 392.624 317.89 390.992C318.066 389.328 320.098 388.08 323.106 388.08C326.114 388.08 327.362 389.168 327.17 390.832C326.978 392.464 325.026 393.712 321.97 393.712ZM319.458 390.848C319.314 391.744 320.13 392.56 322.226 392.608C324.418 392.656 325.458 391.888 325.602 390.992C325.746 390.08 324.946 389.264 322.85 389.216C320.77 389.168 319.618 389.936 319.458 390.848ZM314.77 395.728L314.946 394.576H328.658L328.482 395.728H314.77ZM324.578 397.968H317.026L317.202 396.864H326.194L326.114 397.424C326.018 398.048 325.874 398.64 325.618 399.184H325.954L325.762 400.256H318.098L317.922 401.456H323.266C324.274 401.456 325.09 401.408 325.922 401.28L326.082 402.272C325.25 402.496 324.354 402.576 323.33 402.576H316.322L316.85 399.184H324.258C324.434 398.848 324.482 398.464 324.546 398.144L324.578 397.968ZM346.04 394.08H348.472L348.296 395.232H345.864L344.696 402.704H343.24L345.56 387.872H347.016L346.04 394.08ZM341.272 390.544H335.848L335.992 389.312H343C342.968 389.728 342.856 390.272 342.744 390.736C341.848 394.48 339.304 397.92 334.632 399.408L334.072 398.16C338.168 396.832 340.408 394.192 341.272 390.544ZM359.015 402.704L361.367 387.872H362.807L360.487 402.704H359.015ZM355.303 392.864C355.335 395.312 356.727 396.896 358.631 397.584L357.911 398.848C356.311 398.224 354.759 396.784 354.407 394.736C353.511 396.56 351.879 398.16 349.831 399.104L349.143 397.904C351.815 396.864 353.815 394.192 354.407 390.592H350.807L350.999 389.392H359.255L359.031 390.592H355.847C355.735 391.264 355.511 392.24 355.303 392.864ZM374.326 402.704L376.566 387.872H378.022L375.782 402.704H374.326ZM372.694 393.648L373.542 388.224H374.998L372.87 401.712H371.414L372.502 394.832H370.086C368.87 396.8 367.046 398.336 364.79 399.2L364.198 398C367.382 396.816 369.542 394.24 370.182 390.96H365.622L365.814 389.728H371.814C371.75 390.096 371.67 390.592 371.59 391.008C371.398 391.936 371.11 392.816 370.726 393.648H372.694ZM393.948 397.312L395.436 387.872H396.892L394.556 402.704H393.1L393.772 398.464C391.276 399.216 386.924 399.808 383.116 399.888L383.004 398.608C384.604 398.576 386.156 398.496 387.596 398.384L387.996 395.728H385.02L385.964 389.68H393.244L393.084 390.944H387.244L386.684 394.512H389.868C390.876 394.512 391.868 394.416 392.604 394.288L392.668 395.408C391.804 395.616 390.86 395.728 389.836 395.728H389.388L389.02 398.24C390.972 398.032 392.668 397.728 393.948 397.312ZM410.683 395.936H409.227L409.787 392.448H407.611L407.803 391.312H409.963L410.523 387.872H411.947L410.683 395.936ZM402.699 395.568C400.475 395.568 399.083 394.208 399.307 392.272C399.515 390.304 401.243 388.672 403.547 388.672C405.803 388.672 407.163 390 406.939 391.952C406.747 393.92 405.019 395.568 402.699 395.568ZM400.699 391.952C400.523 393.184 401.259 394.368 402.827 394.416C404.283 394.464 405.371 393.504 405.547 392.272C405.723 391.056 404.891 389.888 403.467 389.824C401.883 389.76 400.859 390.72 400.699 391.952ZM409.035 398.4C409.243 400.128 410.203 401.12 411.563 401.376L411.051 402.56C409.691 402.304 408.731 401.408 408.283 400.016C407.499 401.28 406.427 402.16 405.355 402.56C404.187 402.144 403.419 401.2 403.035 400C402.139 401.424 400.859 402.32 399.563 402.64L399.115 401.536C401.019 400.928 402.283 399.632 402.667 397.44C402.715 397.168 402.747 396.928 402.747 396.768L404.171 396.896L404.075 397.36C403.995 397.728 403.899 398.08 403.787 398.416C403.931 399.76 404.523 400.72 405.419 401.168C406.715 400.48 407.627 399.264 407.915 397.44C407.963 397.168 407.995 396.928 407.995 396.768L409.419 396.896L409.323 397.36C409.243 397.728 409.147 398.064 409.035 398.4ZM424.122 397.872L422.714 397.648C423.578 395.488 424.138 393.184 424.49 390.656H415.626L415.786 389.456H426.154C426.122 389.808 426.074 390.32 426.01 390.72C425.61 393.312 424.986 395.824 424.122 397.872ZM418.906 399.488H426.874L426.714 400.672H413.002L413.162 399.488H417.258C417.562 399.408 417.786 399.104 417.866 398.656L418.506 394.4H419.93L419.29 398.624C419.242 398.976 419.114 399.312 418.906 399.488ZM428.2 400.112L428.264 399.552L430.168 399.136L430.424 399.248C430.536 399.76 430.456 400.176 430.312 400.72C430.136 401.36 429.56 402.352 429.016 402.88L428.36 402.624C428.744 402.16 429.064 401.488 429.016 401.024C428.968 400.592 428.632 400.352 428.2 400.112ZM81.0901 434.08H83.3621L83.1861 435.232H80.9141L79.7621 442.704H78.2901L80.5941 427.872H82.0501L81.0901 434.08ZM75.0421 432.112C75.1861 434.64 76.3541 436.512 78.2581 437.216L77.5701 438.544C75.9861 437.888 74.5141 436.24 74.1461 434.096C73.3301 435.968 71.7301 437.824 69.6501 438.8L68.9141 437.648C71.8581 436.272 73.7621 433.632 74.1301 428.96L75.5541 429.152C75.4581 430.176 75.2341 431.424 75.0421 432.112ZM96.0809 432.08H98.3209L98.1609 433.232H95.9049L95.3769 436.48H93.9209L94.1289 435.2C91.8729 435.904 88.9609 436.128 85.1049 436.08L85.7929 431.744H90.4649C90.6409 431.424 90.8649 430.96 90.9769 430.32L91.0409 429.952H86.0489L86.2409 428.784H92.7529L92.4969 430.128C92.3529 430.88 92.0649 431.44 91.7769 431.744H92.3849L92.1289 432.864H87.1049L86.7849 434.864C89.8089 434.912 92.3369 434.608 94.3049 434.112L95.2969 427.872H96.7689L96.0809 432.08ZM86.4969 437.376H95.4089L94.9769 440.08C94.8969 440.496 94.7529 441.008 94.5289 441.328H95.1209L94.9129 442.496H85.7129L86.4969 437.376ZM93.8249 438.528H87.7769L87.3289 441.328H93.2169C93.4089 440.976 93.5209 440.512 93.5849 440.128L93.8249 438.528ZM103.504 431.616H111.184L110.976 432.816H101.872L102.592 428.352H111.536L111.328 429.568H103.84L103.504 431.616ZM98.9596 435.328L99.1356 434.128H112.848L112.672 435.328H98.9596ZM108.768 437.744H101.248L101.424 436.64H110.384L110.304 437.2C110.208 437.824 110.064 438.48 109.808 439.024H110.144L109.952 440.096H102.32L102.128 441.456H107.44C108.448 441.456 109.408 441.36 110.176 441.216L110.288 442.272C109.456 442.496 108.528 442.576 107.504 442.576H100.512L101.072 439.024H108.448C108.624 438.704 108.688 438.336 108.736 438.016L108.768 437.744ZM124.43 442.704L126.75 427.872H128.19L125.87 442.704H124.43ZM122.798 433.6L123.646 428.224H125.038L122.91 441.712H121.518L122.622 434.736H121.118C120.51 437.184 119.15 438.752 117.182 438.8C115.166 438.864 114.03 436.72 114.494 433.888C114.974 430.976 116.526 429.328 118.622 429.264C120.622 429.184 121.614 431.136 121.326 433.6H122.798ZM119.822 434.048C120.046 432.224 119.79 430.512 118.462 430.448C117.23 430.384 116.174 431.424 115.918 434.016C115.71 436.16 116.126 437.536 117.31 437.632C118.558 437.744 119.55 436.24 119.822 434.048ZM139.453 442.704L141.693 427.872H143.149L140.909 442.704H139.453ZM137.821 433.648L138.669 428.224H140.125L137.997 441.712H136.541L137.629 434.832H135.213C133.997 436.8 132.173 438.336 129.917 439.2L129.325 438C132.509 436.816 134.669 434.24 135.309 430.96H130.749L130.941 429.728H136.941C136.877 430.096 136.797 430.592 136.717 431.008C136.525 431.936 136.237 432.816 135.853 433.648H137.821ZM160.275 434.08H162.659L162.483 435.232H160.099L158.947 442.704H157.475L158.243 437.792C156.435 438.352 153.107 438.88 148.723 438.864L150.147 429.664H156.787L156.611 430.896H151.443L150.403 437.536C153.859 437.504 156.851 437.056 158.435 436.608L159.795 427.872H161.235L160.275 434.08ZM177.746 430.32L177.586 431.472H175.394L175.09 433.312H177.314L177.154 434.464H174.914L174.61 436.304H173.154L174.498 427.872H175.97L175.57 430.32H177.746ZM167.794 435.552C165.49 435.552 164.098 434.24 164.306 432.224C164.498 430.208 166.418 428.592 168.69 428.592C171.01 428.592 172.45 429.888 172.226 431.904C171.986 434.032 170.098 435.552 167.794 435.552ZM165.698 431.936C165.554 433.296 166.546 434.432 167.97 434.432C169.458 434.432 170.626 433.552 170.786 432.192C170.962 430.848 169.938 429.744 168.514 429.744C167.026 429.744 165.826 430.576 165.698 431.936ZM170.002 436.752C172.818 436.688 174.77 437.664 174.482 439.536C174.194 441.328 172.13 442.544 169.25 442.592C166.354 442.64 164.514 441.568 164.802 439.776C165.09 437.952 167.17 436.816 170.002 436.752ZM172.962 439.728C173.106 438.64 171.842 437.92 169.858 437.888C167.874 437.856 166.53 438.432 166.322 439.568C166.114 440.688 167.282 441.392 169.362 441.424C171.458 441.472 172.818 440.816 172.962 439.728ZM190.097 433.44H192.401L192.225 434.592H189.905L189.217 439.04H187.761L189.505 427.872H190.961L190.097 433.44ZM186.305 428.496L186.145 429.696C184.577 429.728 183.153 429.632 181.873 429.376L182.241 428.064C183.457 428.304 184.753 428.48 186.305 428.496ZM179.185 430.608H188.017L187.857 431.76H179.025L179.185 430.608ZM182.753 437.568C180.769 437.568 179.537 436.64 179.681 435.088C179.841 433.6 181.441 432.448 183.489 432.448C185.553 432.448 186.785 433.376 186.593 434.928C186.385 436.48 184.881 437.568 182.753 437.568ZM181.073 434.928C180.913 435.872 181.761 436.528 182.993 436.528C184.225 436.528 185.041 436 185.185 435.088C185.329 434.16 184.497 433.504 183.249 433.504C182.065 433.504 181.201 434.016 181.073 434.928ZM181.857 441.248H187.025C187.953 441.248 188.977 441.184 189.745 441.008L189.905 442.096C189.089 442.32 188.065 442.448 186.673 442.448H180.209L180.817 438.624H182.321L181.857 441.248ZM209.399 434.08H211.783L211.607 435.232H209.223L208.071 442.704H206.599L207.415 437.504C205.527 438.128 202.743 438.576 197.991 438.608L199.415 429.488H200.935L199.703 437.264C203.143 437.216 205.655 436.896 207.591 436.304L208.919 427.872H210.359L209.399 434.08ZM224.262 432.8H226.678L226.518 433.952H224.086L223.318 438.88H221.862L223.606 427.872H225.03L224.262 432.8ZM219.99 434.944H220.646L220.422 436.096H213.126L214.198 429.296H221.19L220.566 433.232C220.47 433.824 220.278 434.528 219.99 434.944ZM219.574 430.448H215.462L214.758 434.944H218.678C218.902 434.528 219.03 433.984 219.11 433.472L219.574 430.448ZM215.558 441.2H220.87C221.798 441.2 222.822 441.152 223.59 441.008L223.686 442.08C222.87 442.304 221.91 442.384 220.518 442.384H213.942L214.662 437.744H216.118L215.558 441.2ZM238.309 437.152L239.765 427.872H241.221L238.885 442.704H237.429L238.117 438.304C235.637 439.024 231.221 439.344 227.605 439.392L227.493 438.144C231.893 438.08 236.021 437.744 238.309 437.152ZM232.597 436.096C230.453 436.096 228.869 434.736 229.189 432.672C229.493 430.608 231.413 429.2 233.637 429.2C235.845 429.2 237.333 430.56 237.013 432.592C236.709 434.656 234.821 436.096 232.597 436.096ZM230.597 432.608C230.453 433.952 231.493 434.912 232.933 434.912C234.325 434.912 235.413 434.016 235.541 432.672C235.669 431.344 234.741 430.4 233.301 430.4C231.861 430.4 230.741 431.264 230.597 432.608ZM253.707 439.664H260.187L260.027 440.896H246.315L246.475 439.664H252.123C252.379 439.584 252.571 439.392 252.635 438.976L253.099 436.304H248.795L249.883 429.392H259.835L259.035 434.224C258.987 434.56 258.859 434.896 258.683 435.136H259.115L258.923 436.304H254.523L254.075 438.816C254.011 439.168 253.915 439.488 253.707 439.664ZM258.155 430.56H251.147L250.443 435.136H257.291C257.419 434.848 257.515 434.528 257.563 434.224L258.155 430.56ZM269.53 430.64C268.266 432.336 265.946 433.168 263.802 433.408L263.386 432.128C265.802 431.84 267.674 431.136 268.714 429.536C268.938 429.184 269.13 428.496 269.21 428L270.714 428.176C270.65 428.608 270.506 429.168 270.33 429.472C270.89 431.024 272.41 431.888 274.65 432.16L274.074 433.36C272.25 433.2 270.266 432.32 269.53 430.64ZM261.354 435.76L261.53 434.56H275.242L275.066 435.76H261.354ZM264.762 438.56H271.146L271.434 436.656H272.922L272.01 442.448H262.65L263.562 436.704H265.082L264.762 438.56ZM264.57 439.76L264.314 441.248H270.73L270.954 439.76H264.57ZM283.592 433.712C280.568 433.712 279.336 432.624 279.512 430.992C279.688 429.328 281.72 428.08 284.728 428.08C287.736 428.08 288.984 429.168 288.792 430.832C288.6 432.464 286.648 433.712 283.592 433.712ZM281.08 430.848C280.936 431.744 281.752 432.56 283.848 432.608C286.04 432.656 287.08 431.888 287.224 430.992C287.368 430.08 286.568 429.264 284.472 429.216C282.392 429.168 281.24 429.936 281.08 430.848ZM276.392 435.728L276.568 434.576H290.28L290.104 435.728H276.392ZM286.2 437.968H278.648L278.824 436.864H287.816L287.736 437.424C287.64 438.048 287.496 438.64 287.24 439.184H287.576L287.384 440.256H279.72L279.544 441.456H284.888C285.896 441.456 286.712 441.408 287.544 441.28L287.704 442.272C286.872 442.496 285.976 442.576 284.952 442.576H277.944L278.472 439.184H285.88C286.056 438.848 286.104 438.464 286.168 438.144L286.2 437.968ZM302.671 439.568H309.327L309.167 440.8H295.455L295.615 439.568H300.943C301.295 439.536 301.551 439.344 301.631 438.848L301.951 436.736H297.775L298.975 428.992H300.479L300.015 431.856H306.751L307.183 428.992H308.655L307.455 436.736H303.375L303.071 438.688C303.007 439.056 302.895 439.392 302.671 439.568ZM306.575 433.04H299.823L299.423 435.536H306.191L306.575 433.04ZM322.413 431.264L322.941 427.872H324.413L322.125 442.704H320.653L321.533 437.04H318.765L318.941 435.888H321.709L322.237 432.416H319.501L319.677 431.264H322.413ZM315.853 429.2C318.013 429.152 319.485 430.88 319.005 433.888C318.509 437.008 316.749 438.88 314.605 438.832C312.557 438.784 311.149 437.104 311.533 434.144C311.933 431.2 313.773 429.248 315.853 429.2ZM317.517 434.128C317.789 431.904 317.037 430.416 315.773 430.416C314.525 430.416 313.277 431.6 312.989 433.856C312.717 436.112 313.533 437.616 314.717 437.616C316.013 437.616 317.229 436.416 317.517 434.128ZM327.532 435.024L327.1 433.68C329.484 433.344 331.484 432.464 332.428 430.96C332.62 430.656 332.748 430.32 332.844 430H328.284L328.492 428.736H339.116L338.908 429.984H334.412C334.332 430.288 334.236 430.624 334.092 430.864C334.652 432.4 336.556 433.296 338.796 433.632L338.316 434.912C336.412 434.656 334.124 433.68 333.276 432.064C332.028 433.712 329.66 434.656 327.532 435.024ZM325.596 436.24H339.308L339.116 437.472H333.228L332.412 442.688H330.94L331.74 437.472H325.404L325.596 436.24ZM351.659 437.872L350.251 437.648C351.115 435.488 351.675 433.184 352.027 430.656H343.163L343.323 429.456H353.691C353.659 429.808 353.611 430.32 353.547 430.72C353.147 433.312 352.523 435.824 351.659 437.872ZM346.443 439.488H354.411L354.251 440.672H340.539L340.699 439.488H344.795C345.099 439.408 345.323 439.104 345.403 438.656L346.043 434.4H347.467L346.827 438.624C346.779 438.976 346.651 439.312 346.443 439.488ZM372.081 427.872H373.553L372.273 436.032H370.801L372.081 427.872ZM365.841 432.144C365.025 433.776 363.441 435.072 361.345 435.792L360.817 434.608C363.489 433.728 365.313 431.68 365.681 428.48L367.105 428.64C367.025 429.216 366.849 429.92 366.673 430.448C366.865 432.704 368.113 433.824 369.953 434.4L369.281 435.6C367.665 434.96 366.257 433.888 365.841 432.144ZM372.337 438.144H362.177L362.353 436.912H372.513L372.337 438.144ZM370.513 439.008L370.369 439.456C370.129 440.24 369.665 440.8 369.217 441.168H372.129L371.969 442.32H361.297L361.489 441.168H364.417C364.353 440.704 364.273 439.984 364.225 439.408L364.177 438.864H365.729L365.809 441.168H367.713C368.081 440.816 368.481 440.192 368.785 439.216L368.929 438.752L370.513 439.008ZM387.344 435.936H385.888L386.448 432.448H384.272L384.464 431.312H386.624L387.184 427.872H388.608L387.344 435.936ZM379.36 435.568C377.136 435.568 375.744 434.208 375.968 432.272C376.176 430.304 377.904 428.672 380.208 428.672C382.464 428.672 383.824 430 383.6 431.952C383.408 433.92 381.68 435.568 379.36 435.568ZM377.36 431.952C377.184 433.184 377.92 434.368 379.488 434.416C380.944 434.464 382.032 433.504 382.208 432.272C382.384 431.056 381.552 429.888 380.128 429.824C378.544 429.76 377.52 430.72 377.36 431.952ZM385.696 438.4C385.904 440.128 386.864 441.12 388.224 441.376L387.712 442.56C386.352 442.304 385.392 441.408 384.944 440.016C384.16 441.28 383.088 442.16 382.016 442.56C380.848 442.144 380.08 441.2 379.696 440C378.8 441.424 377.52 442.32 376.224 442.64L375.776 441.536C377.68 440.928 378.944 439.632 379.328 437.44C379.376 437.168 379.408 436.928 379.408 436.768L380.832 436.896L380.736 437.36C380.656 437.728 380.56 438.08 380.448 438.416C380.592 439.76 381.184 440.72 382.08 441.168C383.376 440.48 384.288 439.264 384.576 437.44C384.624 437.168 384.656 436.928 384.656 436.768L386.08 436.896L385.984 437.36C385.904 437.728 385.808 438.064 385.696 438.4ZM401.887 434.08H404.271L404.095 435.232H401.711L400.559 442.704H399.087L399.855 437.792C398.047 438.352 394.719 438.88 390.335 438.864L391.759 429.664H398.399L398.223 430.896H393.055L392.015 437.536C395.471 437.504 398.463 437.056 400.047 436.608L401.407 427.872H402.847L401.887 434.08ZM405.117 439.12H407.229L406.957 440.96H404.861L405.117 439.12Z" fill="black"/>
</svg>
