<svg width="280" height="280" viewBox="0 0 280 280" fill="none" xmlns="http://www.w3.org/2000/svg">
<rect width="280" height="280" rx="140" fill="url(#paint0_linear_21_2)"/>
<rect width="280" height="280" rx="140" stroke="white"/>
<path d="M44.5463 134.331C45.5833 134.146 46.453 133.977 47.3726 133.888C49.9899 133.464 52.6235 133.208 55.3558 133.533C56.0409 133.635 56.776 133.817 57.4733 134.044C59.3103 134.709 60.2133 136.183 59.749 137.916C59.5876 138.86 59.0338 139.673 58.4719 140.403C57.2643 141.871 55.7775 143.071 54.2826 144.187C50.581 146.91 46.3881 148.922 41.8293 150.209C39.8594 150.781 37.8854 151.31 35.6496 151.317C35.2275 151.316 34.997 151.549 34.8542 151.816C33.8302 153.435 32.8021 155.012 31.778 156.631C30.401 158.959 28.6948 160.94 26.7674 162.815C26.4992 163.095 26.2728 163.37 25.7915 163.628C25.9006 163.448 25.9302 163.319 26.0394 163.139C27.7223 160.486 29.447 157.828 31.0841 155.137C31.9694 153.827 32.767 152.484 33.7196 150.998C33.5066 150.977 33.3771 150.947 33.2395 150.834C32.2507 150.213 32.0776 149.301 32.7568 148.476C33.4482 147.776 34.2813 147.23 35.3142 147.003C36.138 146.796 36.6449 146.367 36.956 145.662C38.6023 142.632 40.3322 139.594 42.0163 136.519C42.0459 136.389 42.1591 136.252 42.252 135.905C41.474 136.15 40.8051 136.215 40.2739 136.393C35.0841 137.7 30.0899 139.283 25.0662 140.995C24.7817 141.108 24.4473 141.14 24.1547 141.169C23.8632 140.775 24.06 140.629 24.2945 140.438C24.7799 140.222 25.2153 139.926 25.7924 139.785C29.0175 138.67 32.2885 137.592 35.6094 136.594C37.8638 135.91 40.214 135.344 42.5184 134.74C42.9323 134.657 43.0292 134.352 43.172 134.085C44.1299 132.22 44.996 130.279 45.8742 128.463C46.0925 128.104 46.2649 127.708 46.4373 127.311C46.5923 127.17 46.6597 126.994 46.8646 126.932C46.986 126.878 47.1532 126.862 47.2867 126.933C47.4203 127.005 47.5242 127.206 47.4946 127.335C47.519 127.586 47.3762 127.853 47.3089 128.028C46.4886 130.007 45.5808 131.952 44.6351 133.943C44.6392 133.985 44.6096 134.114 44.5463 134.331ZM36.0251 149.972C37.1242 149.992 37.9939 149.823 38.9054 149.65C42.1253 148.914 45.2668 147.807 48.1627 146.344C51.1759 144.785 53.9556 142.995 56.3899 140.69C57.2404 139.89 57.9991 139.015 58.3909 137.837C58.9256 136.393 58.3222 135.396 56.5473 134.936C56.4596 134.902 56.2884 134.877 56.1589 134.847C54.5674 134.538 52.9963 134.438 51.4915 134.584C49.3595 134.791 47.198 135.128 44.9825 135.344C44.1882 135.421 43.7609 135.8 43.4498 136.506C41.6595 140.225 39.7735 143.826 37.6285 147.369C37.0706 148.14 36.5667 149.033 36.0251 149.972ZM35.2516 148.528C35.2057 148.491 35.1599 148.453 35.114 148.415C34.5532 148.723 33.9923 149.031 33.7189 149.69C33.9402 149.795 34.0737 149.867 34.3826 150.005C34.6264 149.475 34.9579 148.979 35.2516 148.528ZM70.592 144.499C69.4518 145.791 65.2578 148.225 64.9771 145.34C64.9323 144.881 64.9712 144.413 65.0019 143.861C63.6661 144.877 62.4179 145.927 61.028 146.822C60.718 147.105 60.2622 147.192 59.8901 147.27C59.3548 147.407 58.8369 147.288 58.5413 146.853C58.1999 146.38 58.2805 145.908 58.5325 145.461C58.7508 145.102 58.9354 144.831 59.2413 144.506C60.5824 143.11 62.2312 142.274 64.254 142.246C64.5507 142.259 64.877 142.143 65.0993 141.826C65.4389 141.413 65.7745 140.959 66.1141 140.546C66.2232 140.366 66.3701 140.141 66.5332 140.083C66.6964 140.025 66.989 139.997 67.1643 140.064C67.306 140.219 67.41 140.42 67.3926 140.675C67.3792 140.971 67.2782 141.234 67.1395 141.543C66.8742 142.286 65.091 146.511 67.5677 145.51C68.2203 145.278 68.9657 144.699 69.7234 144.246C69.9243 144.142 70.1547 143.908 70.4096 143.926C70.7104 143.981 70.9519 144.295 70.592 144.499ZM59.6467 146.07C61.2485 145.619 63.1034 144.299 64.1263 143.102C62.4664 143.39 60.4699 144.555 59.6467 146.07ZM77.3857 144.639C76.0399 144.686 75.7548 143.49 75.4104 142.553C74.5452 141.034 72.8593 143.223 72.2892 143.869C71.405 144.757 70.7043 145.796 70.2963 146.806C70.0014 147.679 68.8675 148.169 68.774 147.208C68.7496 146.957 68.9005 146.773 68.9638 146.556C69.8258 144.573 70.6419 142.553 71.504 140.57C71.605 140.307 71.7855 139.994 71.9742 139.765C72.0497 139.673 72.2923 139.565 72.4259 139.636C72.5594 139.708 72.7052 139.904 72.6796 140.076C72.704 140.327 72.6448 140.586 72.5816 140.803C72.2745 141.55 72.0092 142.293 71.7939 143.116C71.9489 142.974 72.1039 142.832 72.1794 142.741C72.6821 142.27 73.0972 141.765 73.5663 141.382C73.8723 141.057 74.274 140.849 74.6462 140.771C75.4619 140.48 76.0379 140.762 76.366 141.532C76.532 141.937 76.6145 142.351 76.7347 142.719C76.9212 143.334 77.1424 143.439 77.8071 143.332C78.058 143.308 78.3883 143.234 78.6809 143.205C80.2572 142.925 79.9479 144.517 77.3857 144.639ZM79.6363 141.382C78.9105 140.862 79.0318 140.808 79.5723 140.291C80.276 139.716 80.7584 139.036 81.1073 138.285C82.1783 136.282 83.2871 134.233 84.3999 132.226C85.0884 131.062 85.8686 129.973 86.8741 129.031C87.1464 128.794 87.5023 128.548 87.8204 128.348C88.1008 128.194 88.4771 128.158 88.7523 128.384C89.0275 128.611 89.1814 128.891 89.0049 129.246C88.807 129.814 88.6172 130.465 88.2938 131.045C86.6272 133.866 84.6813 136.418 82.4264 138.832C82.0868 139.245 81.789 139.654 81.6207 140.092C80.6536 142.296 78.4297 147.196 77.5085 149.438C77.3698 149.747 81.2321 144.772 81.7319 143.837C81.632 143.678 81.5821 143.598 81.5658 143.431C81.2702 142.995 81.4844 142.595 81.9861 142.546C82.9893 142.448 83.6094 141.882 84.2753 141.353C85.2175 140.628 86.1638 139.945 87.1061 139.221C87.3406 139.029 87.7046 138.867 88.039 138.834C88.2899 138.81 88.5111 138.915 88.7364 139.062C88.9698 139.292 88.9106 139.551 88.7219 139.781C88.5373 140.052 88.3068 140.285 88.0682 140.435C87.0046 141.214 86.0542 141.855 85.0661 142.542C84.7938 142.779 84.5094 142.891 84.1535 143.137C84.8711 143.573 85.6276 143.542 86.3424 143.515C87.4792 143.488 88.4539 143.098 89.4502 142.495C89.8102 142.291 90.2078 142.041 90.5678 141.838C90.89 141.68 91.1408 141.655 91.4712 141.581C91.4445 142.174 91.2303 142.575 90.7572 142.916C88.6759 144.511 86.2838 145.082 83.6699 144.239C83.2316 144.071 83.0266 144.133 82.6789 144.462C80.6627 146.726 78.7759 149.019 77.2062 151.535C77.0971 151.715 76.9961 151.978 76.7534 152.086C76.632 152.14 76.3058 152.256 76.1263 152.147C75.9969 152.117 75.8848 151.833 75.8644 151.624C75.7268 151.51 75.8778 151.327 75.9033 151.156C76.5685 149.319 77.2796 147.519 77.903 145.686C78.4121 144.413 78.963 143.136 79.4761 141.904C79.5434 141.729 79.573 141.599 79.6363 141.382ZM83.1294 136.949C85.8248 133.859 88.7326 129.483 87.5692 130.103C86.5729 130.706 83.9536 135.012 83.1294 136.949ZM108.648 128.431C108.874 128.156 108.971 127.851 109.206 127.66C109.637 127.322 110.068 126.985 110.621 126.594C112.095 125.691 113.644 124.696 115.4 124.103C117.065 123.435 118.313 124.115 118.731 125.805C119.078 127.206 118.874 128.576 118.582 129.912C117.943 132.886 116.82 135.654 115.571 138.434C115.264 139.181 114.915 139.933 114.487 140.734C114.616 140.763 114.662 140.801 114.704 140.797C115.324 140.23 115.864 139.714 116.476 139.063C121.207 134.341 126.213 129.845 131.553 125.738C133.521 124.281 135.497 122.907 137.477 121.575C138.097 121.008 138.917 120.76 139.687 120.432C139.884 120.286 140.214 120.212 140.511 120.225C140.678 120.209 140.987 120.347 141.045 120.511C141.099 120.632 141.04 120.891 140.931 121.07C140.822 121.25 140.658 121.308 140.537 121.362C138.508 122.192 136.683 123.383 135.033 124.64C130.037 128.376 125.237 132.387 120.674 136.671C120.331 137.042 120.234 137.347 120.199 137.857C120.119 139.637 120.206 141.401 120.465 143.19C120.587 144.444 120.788 145.649 121.442 146.724C122.619 148.846 124.563 150.176 127.027 150.781C127.804 150.958 128.576 151.094 129.391 151.226C128.315 151.879 127.241 152.11 126.238 151.786C122.977 150.795 120.638 148.87 119.648 145.633C119.168 143.739 119.022 141.812 119.044 139.868C119.041 139.404 118.993 138.903 119.061 138.305C118.554 138.734 118.131 139.155 117.746 139.531C116.019 141.302 114.292 143.074 112.612 144.883C112.193 145.346 111.865 145.884 111.584 146.46C109.941 149.531 108.17 152.573 106.081 155.393C105.217 156.49 104.262 157.511 103.268 158.578C103.08 158.808 102.757 158.966 102.435 159.123C102.121 159.365 101.749 159.443 101.386 159.183C100.985 158.969 100.945 158.551 101.034 158.163C101.122 157.774 101.332 157.332 101.547 156.931C102.58 154.974 103.964 153.151 105.356 151.412C107.134 149.298 108.911 147.184 110.689 145.07C111.523 144.103 112.048 142.997 112.657 141.882C114.301 138.389 116.032 134.929 117.061 131.2C117.5 129.638 117.864 128.168 117.667 126.583C117.635 126.249 117.56 125.918 117.444 125.592C117.174 124.986 116.644 124.742 115.991 124.974C115.218 125.26 114.436 125.463 113.716 125.871C112.481 126.624 111.208 127.423 109.973 128.176C109.617 128.422 109.257 128.625 108.648 128.431ZM102.917 157.135C104.731 155.398 106.137 153.362 107.317 151.179C105.59 152.951 104.143 154.991 102.917 157.135ZM144.767 137.281C143.627 138.573 139.433 141.007 139.152 138.123C139.107 137.663 139.146 137.195 139.177 136.643C137.841 137.659 136.593 138.709 135.203 139.604C134.893 139.887 134.437 139.974 134.065 140.052C133.53 140.189 133.012 140.071 132.716 139.635C132.375 139.162 132.456 138.69 132.708 138.243C132.926 137.885 133.11 137.613 133.416 137.288C134.757 135.892 136.406 135.056 138.429 135.028C138.726 135.042 139.052 134.925 139.274 134.608C139.614 134.196 139.95 133.741 140.289 133.328C140.398 133.149 140.545 132.923 140.708 132.865C140.871 132.807 141.164 132.779 141.339 132.846C141.481 133.001 141.585 133.202 141.568 133.457C141.554 133.754 141.453 134.017 141.315 134.325C141.049 135.069 139.266 139.293 141.743 138.293C142.395 138.06 143.141 137.481 143.898 137.028C144.099 136.924 144.33 136.691 144.585 136.708C144.885 136.763 145.127 137.077 144.767 137.281ZM133.822 138.852C135.424 138.401 137.278 137.081 138.301 135.885C136.641 136.173 134.645 137.338 133.822 138.852ZM151.958 138.902C153.368 138.216 155.344 136.842 156.734 135.948C158.413 134.983 158.937 136.029 157.379 136.94C155.743 137.901 154.019 138.828 152.332 139.71C151.771 140.017 151.19 140.116 150.626 139.96C150.1 139.758 149.846 139.319 149.903 138.596C149.975 138.04 150.189 137.639 150.266 137.126C150.65 135.865 151.02 134.9 149.321 135.656C148.45 136.247 147.542 136.884 146.717 137.513C145.938 138.18 145.205 138.884 144.388 139.597C144.275 139.734 144.165 139.914 143.964 140.018C143.726 140.167 143.412 140.409 143.045 140.107C142.724 139.843 142.775 139.5 142.959 139.229C143.354 138.516 143.707 137.806 144.06 137.097C144.534 136.333 144.963 135.532 145.391 134.731C145.5 134.551 145.572 134.418 145.635 134.2C146 133.616 146.352 133.329 146.627 133.555C146.894 133.698 146.847 134.082 146.494 134.792C146.175 135.414 145.902 136.073 145.536 136.657C145.285 137.104 143.557 139.298 144.822 137.993C145.937 136.872 147.265 135.772 148.579 134.969C149.693 134.27 151.354 133.56 151.7 135.383C151.911 136.248 151.353 137.02 151.058 137.893C150.784 138.974 150.874 139.472 151.958 138.902ZM162.39 137.507L163.403 137.071C166.712 135.525 166.076 135.925 169.424 134.333C169.625 134.229 169.825 134.125 169.997 134.151C170.21 134.172 170.552 134.223 170.74 134.416C170.973 134.646 170.797 135.001 170.6 135.147C170.324 135.343 170.01 135.584 169.721 135.654C167.215 136.785 168.718 135.752 166.216 136.924C164.96 137.468 163.713 138.096 162.379 138.69C161.939 138.944 161.582 139.611 161.338 140.141C159.931 143.021 158.164 145.683 155.614 147.661C153.964 148.919 152.252 149.972 150.178 150.342C149.638 150.437 149.133 150.444 148.661 150.363C147.595 150.256 147.046 149.381 147.5 148.409C147.735 147.795 148.138 147.165 148.558 146.702C149.442 145.814 150.38 145.048 151.23 144.248C153.735 142.232 156.543 140.735 159.268 139.246C160.322 138.806 161.252 137.956 161.656 136.903C162.442 135.434 162.437 134.085 162.52 134.076C161.842 134.48 160.686 135.605 160.05 136.005C159.455 136.4 158.97 136.616 158.359 136.845C157.961 137.094 157.527 136.968 157.16 136.666C156.868 136.272 156.911 135.846 157.13 135.487C157.378 134.999 157.709 134.502 158.136 134.123C159.05 133.106 160.126 132.453 161.347 131.996C161.674 131.88 162.05 131.844 162.384 131.811C162.631 131.745 162.84 131.724 163.083 131.616C163.409 131.5 163.731 131.342 163.927 131.619C164.244 131.841 164.235 132.18 164.104 132.572C163.552 134.271 163 135.971 162.39 137.507ZM150.878 149.304C154.782 147.784 158.751 143.474 160.328 139.733C157.358 140.866 152.366 144.644 150.175 146.84C148.269 148.503 147.733 150.369 150.878 149.304ZM158.79 135.199C158.175 136.694 161.014 134.645 162.411 132.948C161.324 133.054 159.44 134.081 158.79 135.199ZM211.092 119.307C209.69 120.076 208.334 120.883 206.878 121.531C203.814 123.011 200.618 124.419 197.497 125.736C194.66 126.94 191.823 128.145 188.937 129.269C186.481 130.057 184.114 130.878 181.658 131.666C181.131 131.886 180.63 131.935 180.003 131.996C179.551 132.124 179.117 131.997 178.797 131.311C179.035 131.161 179.22 130.89 179.471 130.866C185.041 129.564 190.346 127.276 195.606 124.949C199.346 123.488 203.019 121.78 206.735 120.068C208.145 119.383 209.581 118.526 210.979 117.714C211.214 117.523 211.582 117.402 211.912 117.328C212.656 117.171 213.09 117.72 212.837 118.589C212.814 119.224 212.562 119.67 212.406 120.234C211.203 123.052 210.004 125.911 208.848 128.767C207.475 132.445 206.065 136.169 204.735 139.843C204.171 141.417 203.74 143.063 203.176 144.637C203.129 145.021 203.074 145.322 203.019 145.622C203.069 145.702 203.194 145.69 203.202 145.773C203.474 145.536 203.784 145.253 204.049 144.931C205.462 142.979 206.922 141.065 208.214 139.167C211.076 134.753 213.846 130.264 216.662 125.812C218.097 123.647 219.536 121.523 220.971 119.358C221.231 118.995 221.496 118.674 221.768 118.437C222.577 117.641 223.286 117.994 223.496 119.281C223.549 119.825 223.48 120.422 223.449 120.974C223.287 124.07 223.07 127.045 222.819 130.108C222.675 132.527 222.572 134.943 222.511 137.354C222.448 137.571 222.435 137.868 222.635 138.186C222.769 137.835 222.979 137.393 223.152 136.996C224.67 133.515 226.142 129.996 227.706 126.552C229.618 122.357 231.719 118.355 234.269 114.646C235.046 113.516 235.822 112.385 236.69 111.33C236.908 110.971 237.264 110.726 237.632 110.606C237.799 110.589 238.096 110.603 238.196 110.762C238.262 111.008 238.29 111.301 238.269 111.514C238.088 111.827 237.95 112.136 237.69 112.499C236.75 113.687 235.731 114.926 234.854 116.319C232.492 119.799 230.509 123.705 228.71 127.762C227.003 131.473 225.358 135.389 223.664 139.225C223.391 139.884 223.034 140.552 222.677 141.22C222.429 141.708 222.073 141.954 221.639 141.827C221.154 141.621 221.056 141.04 221.049 140.534C221.086 139.18 221.131 137.91 221.206 136.51C221.554 131.413 221.856 126.277 222.166 121.225C222.179 120.929 222.159 120.72 222.152 120.214C221.808 120.585 221.54 120.864 221.359 121.177C220.004 123.292 218.569 125.458 217.175 127.619C213.814 132.967 210.548 138.433 206.94 143.426C206.089 144.649 205.263 145.7 204.311 146.763C203.971 147.175 203.532 147.429 203.055 147.729C202.281 148.015 201.639 147.487 201.625 146.475C201.614 145.928 201.724 145.326 201.838 144.767C202.521 142.675 203.149 140.462 203.87 138.324C205.992 132.378 208.331 126.496 210.72 120.693C210.939 120.335 211.065 119.9 211.234 119.462C211.188 119.424 211.142 119.386 211.092 119.307ZM237.189 127.739C237.846 127.548 238.469 127.446 239.042 127.263C239.494 127.135 240.238 126.978 240.731 126.846C241.024 126.817 241.108 126.809 241.367 126.868C241.542 126.936 241.733 127.17 241.712 127.383C241.72 127.467 241.452 127.746 241.327 127.758C240.795 127.937 240.344 128.065 239.804 128.16C238.78 128.47 237.747 128.698 236.764 129.004C236.475 129.074 236.237 129.224 236.052 129.495C234.987 130.696 234.475 131.506 233.463 131.942C232.003 132.548 230.358 131.695 232.089 128.235C232.69 127.037 233.65 126.058 234.651 125.074C235.078 124.695 235.51 124.358 236.175 124.251C237.086 124.078 237.67 124.443 237.718 125.367C237.759 125.785 237.557 126.311 237.522 126.82C237.421 127.083 237.32 127.346 237.189 127.739ZM233.197 128.339C231.497 130.825 234.073 131.713 234.929 129.225C234.051 129.31 233.441 129.116 233.197 128.339ZM236.481 125.234C235.469 125.67 234.857 126.32 234.474 127.159C234.369 127.38 234.352 127.635 234.665 127.816C235.032 128.118 235.78 128.003 235.944 127.523C236.234 127.03 236.428 126.421 236.546 125.903C236.622 125.811 236.514 125.568 236.481 125.234ZM248.586 129.5C249.996 128.814 251.972 127.44 253.362 126.545C255.04 125.58 255.564 126.626 254.007 127.537C252.37 128.498 250.646 129.426 248.96 130.307C248.399 130.615 247.818 130.714 247.254 130.557C246.728 130.355 246.474 129.916 246.53 129.193C246.603 128.638 246.817 128.237 246.894 127.723C247.277 126.462 247.648 125.498 245.949 126.254C245.078 126.845 244.169 127.482 243.344 128.111C242.565 128.777 241.832 129.482 241.015 130.194C240.902 130.332 240.793 130.511 240.592 130.615C240.353 130.765 240.039 131.006 239.672 130.704C239.351 130.44 239.402 130.098 239.587 129.827C239.982 129.113 240.335 128.403 240.688 127.694C241.162 126.93 241.59 126.129 242.019 125.328C242.128 125.149 242.199 125.015 242.263 124.798C242.628 124.214 242.98 123.926 243.255 124.153C243.522 124.295 243.475 124.68 243.122 125.389C242.803 126.011 242.529 126.671 242.164 127.255C241.912 127.701 240.184 129.895 241.45 128.59C242.565 127.469 243.892 126.369 245.207 125.566C246.32 124.867 247.981 124.157 248.328 125.98C248.538 126.846 247.98 127.617 247.686 128.49C247.411 129.572 247.502 130.069 248.586 129.5Z" fill="white"/>
<defs>
<linearGradient id="paint0_linear_21_2" x1="10.6698" y1="115.656" x2="314.011" y2="97.2714" gradientUnits="userSpaceOnUse">
<stop stop-color="#36AFFD"/>
<stop offset="0.295" stop-color="#6DC5FE"/>
<stop offset="1" stop-color="#B6E2FF"/>
</linearGradient>
</defs>
</svg>
